G04*
G04 #@! TF.GenerationSoftware,Altium Limited,Altium Designer,21.9.2 (33)*
G04*
G04 Layer_Color=32896*
%FSTAX24Y24*%
%MOIN*%
G70*
G04*
G04 #@! TF.SameCoordinates,8777FA3C-9CA2-4F10-8BE3-E232CA162E6C*
G04*
G04*
G04 #@! TF.FilePolarity,Positive*
G04*
G01*
G75*
%ADD10C,0.0098*%
%ADD11C,0.0079*%
%ADD13C,0.0236*%
%ADD14C,0.0070*%
%ADD16C,0.0040*%
D10*
X025818Y035864D02*
G03*
X025818Y035864I-000049J0D01*
G01*
D11*
X021666Y036405D02*
X025721D01*
X021666Y039043D02*
X025721D01*
Y036405D02*
Y039043D01*
X021666Y036405D02*
Y039043D01*
X026961Y03637D02*
X027671D01*
X026961D02*
Y036915D01*
X027671Y03637D02*
Y036915D01*
Y03722D02*
Y037748D01*
X026961D02*
X027671D01*
X026961Y03722D02*
Y037748D01*
X024347Y04038D02*
Y04109D01*
X024892D01*
X024347Y04038D02*
X024892D01*
X025197D02*
X025725D01*
Y04109D01*
X025197D02*
X025725D01*
X024375Y041254D02*
Y041964D01*
X02492D01*
X024375Y041254D02*
X02492D01*
X025225D02*
X025753D01*
Y041964D01*
X025225D02*
X025753D01*
X026131Y03636D02*
X026841D01*
X026131D02*
Y036905D01*
X026841Y03636D02*
Y036905D01*
Y03721D02*
Y037738D01*
X026131D02*
X026841D01*
X026131Y03721D02*
Y037738D01*
X026104Y037875D02*
X026814D01*
X026104D02*
Y03842D01*
X026814Y037875D02*
Y03842D01*
Y038725D02*
Y039253D01*
X026104D02*
X026814D01*
X026104Y038725D02*
Y039253D01*
X027808Y036357D02*
X028518D01*
X027808D02*
Y036902D01*
X028518Y036357D02*
Y036902D01*
Y037207D02*
Y037735D01*
X027808D02*
X028518D01*
X027808Y037207D02*
Y037735D01*
X027804Y037845D02*
X028514D01*
X027804D02*
Y03839D01*
X028514Y037845D02*
Y03839D01*
Y038695D02*
Y039223D01*
X027804D02*
X028514D01*
X027804Y038695D02*
Y039223D01*
X026984Y037885D02*
X027694D01*
X026984D02*
Y03843D01*
X027694Y037885D02*
Y03843D01*
Y038735D02*
Y039263D01*
X026984D02*
X027694D01*
X026984Y038735D02*
Y039263D01*
X033339Y04622D02*
Y04693D01*
X032794Y04622D02*
X033339D01*
X032794Y04693D02*
X033339D01*
X031961D02*
X032489D01*
X031961Y04622D02*
Y04693D01*
Y04622D02*
X032489D01*
X032536Y047224D02*
X032733D01*
X032536Y047776D02*
X032733D01*
X036339Y04622D02*
Y04693D01*
X035794Y04622D02*
X036339D01*
X035794Y04693D02*
X036339D01*
X034961D02*
X035489D01*
X034961Y04622D02*
Y04693D01*
Y04622D02*
X035489D01*
X035517Y047124D02*
X035714D01*
X035517Y047676D02*
X035714D01*
X038667Y047124D02*
X038864D01*
X038667Y047676D02*
X038864D01*
X039439Y04617D02*
Y04688D01*
X038894Y04617D02*
X039439D01*
X038894Y04688D02*
X039439D01*
X038061D02*
X038589D01*
X038061Y04617D02*
Y04688D01*
Y04617D02*
X038589D01*
X041517Y047124D02*
X041714D01*
X041517Y047676D02*
X041714D01*
X042339Y04622D02*
Y04693D01*
X041794Y04622D02*
X042339D01*
X041794Y04693D02*
X042339D01*
X040961D02*
X041489D01*
X040961Y04622D02*
Y04693D01*
Y04622D02*
X041489D01*
X021011Y04627D02*
Y04698D01*
X021556D01*
X021011Y04627D02*
X021556D01*
X021861D02*
X022389D01*
Y04698D01*
X021861D02*
X022389D01*
X024267Y047776D02*
X024464D01*
X024267Y047224D02*
X024464D01*
X023711Y04627D02*
Y04698D01*
X024256D01*
X023711Y04627D02*
X024256D01*
X024561D02*
X025089D01*
Y04698D01*
X024561D02*
X025089D01*
X021536Y047776D02*
X021733D01*
X021536Y047224D02*
X021733D01*
X027167Y047726D02*
X027364D01*
X027167Y047174D02*
X027364D01*
X026611Y04622D02*
Y04693D01*
X027156D01*
X026611Y04622D02*
X027156D01*
X027461D02*
X027989D01*
Y04693D01*
X027461D02*
X027989D01*
X018767Y047876D02*
X018964D01*
X018767Y047324D02*
X018964D01*
X018211Y04627D02*
Y04698D01*
X018756D01*
X018211Y04627D02*
X018756D01*
X019061D02*
X019589D01*
Y04698D01*
X019061D02*
X019589D01*
D13*
X025446Y036799D02*
G03*
X025446Y036799I-000118J0D01*
G01*
D14*
X027587Y036971D02*
Y037151D01*
X027047Y036971D02*
Y037151D01*
X024948Y040464D02*
X025128D01*
X024948Y041004D02*
X025128D01*
X024976Y041338D02*
X025156D01*
X024976Y041878D02*
X025156D01*
X026757Y036961D02*
Y037141D01*
X026217Y036961D02*
Y037141D01*
X02673Y038476D02*
Y038656D01*
X02619Y038476D02*
Y038656D01*
X028434Y036958D02*
Y037138D01*
X027894Y036958D02*
Y037138D01*
X02843Y038446D02*
Y038626D01*
X02789Y038446D02*
Y038626D01*
X02761Y038486D02*
Y038666D01*
X02707Y038486D02*
Y038666D01*
X032558Y046846D02*
X032738D01*
X032558Y046306D02*
X032738D01*
X035558Y046846D02*
X035738D01*
X035558Y046306D02*
X035738D01*
X038658Y046796D02*
X038838D01*
X038658Y046256D02*
X038838D01*
X041558Y046846D02*
X041738D01*
X041558Y046306D02*
X041738D01*
X021612Y046354D02*
X021792D01*
X021612Y046894D02*
X021792D01*
X024312Y046354D02*
X024492D01*
X024312Y046894D02*
X024492D01*
X027212Y046304D02*
X027392D01*
X027212Y046844D02*
X027392D01*
X018812Y046354D02*
X018992D01*
X018812Y046894D02*
X018992D01*
D16*
X02227Y01484D02*
X02273D01*
X02227D02*
Y01591D01*
X02273D01*
Y01484D02*
Y01591D01*
X02266Y01533D02*
Y01541D01*
X02234Y01533D02*
Y01541D01*
X02174Y01484D02*
X0222D01*
X02174D02*
Y01591D01*
X0222D01*
Y01484D02*
Y01591D01*
X02213Y01533D02*
Y01541D01*
X02181Y01533D02*
Y01541D01*
X02281Y01485D02*
X02327D01*
X02281D02*
Y01592D01*
X02327D01*
Y01485D02*
Y01592D01*
X0232Y01534D02*
Y01542D01*
X02288Y01534D02*
Y01542D01*
X027645Y014838D02*
X028105D01*
X027645D02*
Y015908D01*
X028105D01*
Y014838D02*
Y015908D01*
X028035Y015328D02*
Y015408D01*
X027715Y015328D02*
Y015408D01*
X02713Y01483D02*
X02759D01*
X02713D02*
Y0159D01*
X02759D01*
Y01483D02*
Y0159D01*
X02752Y01532D02*
Y0154D01*
X0272Y01532D02*
Y0154D01*
X02661Y014825D02*
X02707D01*
X02661D02*
Y015895D01*
X02707D01*
Y014825D02*
Y015895D01*
X027Y015315D02*
Y015395D01*
X02668Y015315D02*
Y015395D01*
X01062Y01387D02*
X01108D01*
X01062D02*
Y01494D01*
X01108D01*
Y01387D02*
Y01494D01*
X01101Y01436D02*
Y01444D01*
X01069Y01436D02*
Y01444D01*
M02*
