G04*
G04 #@! TF.GenerationSoftware,Altium Limited,Altium Designer,21.9.2 (33)*
G04*
G04 Layer_Color=128*
%FSTAX24Y24*%
%MOIN*%
G70*
G04*
G04 #@! TF.SameCoordinates,8777FA3C-9CA2-4F10-8BE3-E232CA162E6C*
G04*
G04*
G04 #@! TF.FilePolarity,Positive*
G04*
G01*
G75*
%ADD105C,0.0020*%
D105*
X047405Y0112D02*
X047995D01*
X0477Y010905D02*
Y011495D01*
X045905Y0112D02*
X046495D01*
X0462Y010905D02*
Y011495D01*
X043814Y0112D02*
X044404D01*
X044109Y010905D02*
Y011495D01*
X042314Y0112D02*
X042904D01*
X042609Y010905D02*
Y011495D01*
X036705Y0112D02*
X037295D01*
X037Y010905D02*
Y011495D01*
X035205Y0112D02*
X035795D01*
X0355Y010905D02*
Y011495D01*
X033164Y0112D02*
X033754D01*
X033459Y010905D02*
Y011495D01*
X031664Y0112D02*
X032254D01*
X031959Y010905D02*
Y011495D01*
X029364Y0112D02*
X029954D01*
X029659Y010905D02*
Y011495D01*
X027864Y0112D02*
X028454D01*
X028159Y010905D02*
Y011495D01*
X022105Y0112D02*
X022695D01*
X0224Y010905D02*
Y011495D01*
X020605Y0112D02*
X021195D01*
X0209Y010905D02*
Y011495D01*
X014255Y0112D02*
X014845D01*
X01455Y010905D02*
Y011495D01*
X012755Y0112D02*
X013345D01*
X01305Y010905D02*
Y011495D01*
X014028Y044113D02*
X01454D01*
X014284Y043857D02*
Y044369D01*
X029028Y044113D02*
X02954D01*
X029284Y043857D02*
Y044369D01*
X028028Y044113D02*
X02854D01*
X028284Y043857D02*
Y044369D01*
X027028Y044113D02*
X02754D01*
X027284Y043857D02*
Y044369D01*
X026028Y044113D02*
X02654D01*
X026284Y043857D02*
Y044369D01*
X025028Y044113D02*
X02554D01*
X025284Y043857D02*
Y044369D01*
X024028Y044113D02*
X02454D01*
X024284Y043857D02*
Y044369D01*
X023028Y044113D02*
X02354D01*
X023284Y043857D02*
Y044369D01*
X022028Y044113D02*
X02254D01*
X022284Y043857D02*
Y044369D01*
X021028Y044113D02*
X02154D01*
X021284Y043857D02*
Y044369D01*
X020028Y044113D02*
X02054D01*
X020284Y043857D02*
Y044369D01*
X019028Y044113D02*
X01954D01*
X019284Y043857D02*
Y044369D01*
X018028Y044113D02*
X01854D01*
X018284Y043857D02*
Y044369D01*
X017028Y044113D02*
X01754D01*
X017284Y043857D02*
Y044369D01*
X016028Y044113D02*
X01654D01*
X016284Y043857D02*
Y044369D01*
X015028Y044113D02*
X01554D01*
X015284Y043857D02*
Y044369D01*
X041214Y0203D02*
X041686D01*
X04145Y020064D02*
Y020536D01*
X041214Y0213D02*
X041686D01*
X04145Y021064D02*
Y021536D01*
X041214Y0223D02*
X041686D01*
X04145Y022064D02*
Y022536D01*
X041214Y0233D02*
X041686D01*
X04145Y023064D02*
Y023536D01*
X048354Y02124D02*
X048886D01*
X04862Y020975D02*
Y021506D01*
X048354Y02439D02*
X048886D01*
X04862Y024124D02*
Y024656D01*
X038755Y0112D02*
X039345D01*
X03905Y010905D02*
Y011495D01*
X040255Y0112D02*
X040845D01*
X04055Y010905D02*
Y011495D01*
X01373Y018D02*
X01407D01*
X0139Y01783D02*
Y01817D01*
X01273Y018D02*
X01307D01*
X0129Y01783D02*
Y01817D01*
X01173Y018D02*
X01207D01*
X0119Y01783D02*
Y01817D01*
X01073Y018D02*
X01107D01*
X0109Y01783D02*
Y01817D01*
X01073Y021D02*
X01107D01*
X0109Y02083D02*
Y02117D01*
X01173Y021D02*
X01207D01*
X0119Y02083D02*
Y02117D01*
X01273Y021D02*
X01307D01*
X0129Y02083D02*
Y02117D01*
X01373Y021D02*
X01407D01*
X0139Y02083D02*
Y02117D01*
X040803Y03382D02*
X041237D01*
X04102Y033603D02*
Y034037D01*
X040803Y03282D02*
X041237D01*
X04102Y032603D02*
Y033037D01*
X040803Y03182D02*
X041237D01*
X04102Y031603D02*
Y032037D01*
X047513Y02776D02*
X047827D01*
X04767Y027603D02*
Y027917D01*
X045583Y02776D02*
X045898D01*
X045741Y027603D02*
Y027917D01*
X03898Y03577D02*
X03926D01*
X03912Y03563D02*
Y03591D01*
X03998Y03577D02*
X04026D01*
X04012Y03563D02*
Y03591D01*
X044033Y01475D02*
X044347D01*
X04419Y014593D02*
Y014907D01*
X044033Y01575D02*
X044347D01*
X04419Y015593D02*
Y015907D01*
X044033Y01655D02*
X044347D01*
X04419Y016393D02*
Y016707D01*
X044033Y01755D02*
X044347D01*
X04419Y017393D02*
Y017707D01*
X044785Y013563D02*
X045258D01*
X045022Y013327D02*
Y0138D01*
X044785Y018737D02*
X045258D01*
X045022Y0185D02*
Y018973D01*
X040595Y04577D02*
X040905D01*
X04075Y045615D02*
Y045925D01*
X042475Y04848D02*
X042785D01*
X04263Y048325D02*
Y048635D01*
X040595Y04848D02*
X040905D01*
X04075Y048325D02*
Y048635D01*
X042475Y04577D02*
X042785D01*
X04263Y045615D02*
Y045925D01*
X019665Y04848D02*
X019975D01*
X01982Y048325D02*
Y048635D01*
X017785Y04577D02*
X018095D01*
X01794Y045615D02*
Y045925D01*
X019665Y04577D02*
X019975D01*
X01982Y045615D02*
Y045925D01*
X017785Y04848D02*
X018095D01*
X01794Y048325D02*
Y048635D01*
X037645Y04577D02*
X037955D01*
X0378Y045615D02*
Y045925D01*
X039525Y04848D02*
X039835D01*
X03968Y048325D02*
Y048635D01*
X037645Y04848D02*
X037955D01*
X0378Y048325D02*
Y048635D01*
X039525Y04577D02*
X039835D01*
X03968Y045615D02*
Y045925D01*
X022465Y04848D02*
X022775D01*
X02262Y048325D02*
Y048635D01*
X020585Y04577D02*
X020895D01*
X02074Y045615D02*
Y045925D01*
X022465Y04577D02*
X022775D01*
X02262Y045615D02*
Y045925D01*
X020585Y04848D02*
X020895D01*
X02074Y048325D02*
Y048635D01*
X034615Y04577D02*
X034925D01*
X03477Y045615D02*
Y045925D01*
X036495Y04848D02*
X036805D01*
X03665Y048325D02*
Y048635D01*
X034615Y04848D02*
X034925D01*
X03477Y048325D02*
Y048635D01*
X036495Y04577D02*
X036805D01*
X03665Y045615D02*
Y045925D01*
X025265Y04848D02*
X025575D01*
X02542Y048325D02*
Y048635D01*
X023385Y04577D02*
X023695D01*
X02354Y045615D02*
Y045925D01*
X025265Y04577D02*
X025575D01*
X02542Y045615D02*
Y045925D01*
X023385Y04848D02*
X023695D01*
X02354Y048325D02*
Y048635D01*
X031565Y04577D02*
X031875D01*
X03172Y045615D02*
Y045925D01*
X033445Y04848D02*
X033755D01*
X0336Y048325D02*
Y048635D01*
X031565Y04848D02*
X031875D01*
X03172Y048325D02*
Y048635D01*
X033445Y04577D02*
X033755D01*
X0336Y045615D02*
Y045925D01*
X028115Y04848D02*
X028425D01*
X02827Y048325D02*
Y048635D01*
X026235Y04577D02*
X026545D01*
X02639Y045615D02*
Y045925D01*
X028115Y04577D02*
X028425D01*
X02827Y045615D02*
Y045925D01*
X026235Y04848D02*
X026545D01*
X02639Y048325D02*
Y048635D01*
X029814Y02619D02*
X030286D01*
X03005Y025954D02*
Y026426D01*
X029814Y02719D02*
X030286D01*
X03005Y026954D02*
Y027426D01*
X029814Y02819D02*
X030286D01*
X03005Y027954D02*
Y028426D01*
X029814Y02919D02*
X030286D01*
X03005Y028954D02*
Y029426D01*
X013925Y04855D02*
X014275D01*
X0141Y048375D02*
Y048725D01*
X015925Y04755D02*
X016275D01*
X0161Y047375D02*
Y047725D01*
X013925Y04655D02*
X014275D01*
X0141Y046375D02*
Y046725D01*
X01958Y0185D02*
X01992D01*
X01975Y01833D02*
Y01867D01*
X02058Y0185D02*
X02092D01*
X02075Y01833D02*
Y01867D01*
X02158Y0185D02*
X02192D01*
X02175Y01833D02*
Y01867D01*
X02258Y0185D02*
X02292D01*
X02275Y01833D02*
Y01867D01*
X02258Y0215D02*
X02292D01*
X02275Y02133D02*
Y02167D01*
X02158Y0215D02*
X02192D01*
X02175Y02133D02*
Y02167D01*
X02058Y0215D02*
X02092D01*
X02075Y02133D02*
Y02167D01*
X01958Y0215D02*
X01992D01*
X01975Y02133D02*
Y02167D01*
X013831Y0135D02*
X013989D01*
X01391Y013421D02*
Y013579D01*
X013821Y01392D02*
X013979D01*
X0139Y013841D02*
Y013999D01*
X013921Y01276D02*
X014079D01*
X014Y012681D02*
Y012839D01*
X015484Y018038D02*
X015641D01*
X015563Y017959D02*
Y018116D01*
X022881Y01336D02*
X023039D01*
X02296Y013281D02*
Y013439D01*
X022281Y01409D02*
X022439D01*
X02236Y014011D02*
Y014169D01*
X022551Y013774D02*
X022708D01*
X022629Y013696D02*
Y013853D01*
X022591Y01302D02*
X022749D01*
X02267Y012941D02*
Y013099D01*
X018782Y012689D02*
X01894D01*
X018861Y01261D02*
Y012768D01*
X018051Y01299D02*
X018209D01*
X01813Y012911D02*
Y013069D01*
X044191Y0236D02*
X044349D01*
X04427Y023521D02*
Y023679D01*
X024869Y038287D02*
X025026D01*
X024947Y038209D02*
Y038366D01*
X024231Y039109D02*
X024388D01*
X024309Y039031D02*
Y039188D01*
X016431Y01741D02*
X016589D01*
X01651Y017331D02*
Y017489D01*
X015091Y014133D02*
X015249D01*
X01517Y014055D02*
Y014212D01*
X014764Y01814D02*
X014921D01*
X014843Y018061D02*
Y018219D01*
X014751Y01889D02*
X014909D01*
X01483Y018811D02*
Y018969D01*
X011761Y01356D02*
X011919D01*
X01184Y013481D02*
Y013639D01*
X011642Y013958D02*
X0118D01*
X011721Y013879D02*
Y014036D01*
X011298Y014387D02*
X011456D01*
X011377Y014308D02*
Y014465D01*
X014611Y01738D02*
X014769D01*
X01469Y017301D02*
Y017459D01*
X016241Y019247D02*
X016399D01*
X01632Y019169D02*
Y019326D01*
X038141Y04653D02*
X038299D01*
X03822Y046451D02*
Y046609D01*
X032081Y04655D02*
X032239D01*
X03216Y046471D02*
Y046629D01*
X022141Y0465D02*
X022299D01*
X02222Y046421D02*
Y046579D01*
X028991Y01726D02*
X029149D01*
X02907Y017181D02*
Y017339D01*
X043391Y02079D02*
X043549D01*
X04347Y020711D02*
Y020869D01*
X018071Y01398D02*
X018229D01*
X01815Y013901D02*
Y014059D01*
X018001Y01354D02*
X018159D01*
X01808Y013461D02*
Y013619D01*
X013491Y01439D02*
X013649D01*
X01357Y014311D02*
Y014469D01*
X014771Y0138D02*
X014929D01*
X01485Y013721D02*
Y013879D01*
X015831Y01356D02*
X015989D01*
X01591Y013481D02*
Y013639D01*
X016491Y01459D02*
X016649D01*
X01657Y014511D02*
Y014669D01*
X020411Y01355D02*
X020569D01*
X02049Y013471D02*
Y013629D01*
X019941Y01411D02*
X020099D01*
X02002Y014031D02*
Y014189D01*
X020421Y01398D02*
X020579D01*
X0205Y013901D02*
Y014059D01*
X023811Y014D02*
X023969D01*
X02389Y013921D02*
Y014079D01*
X023831Y01351D02*
X023989D01*
X02391Y013431D02*
Y013589D01*
X025191Y01545D02*
X025349D01*
X02527Y015371D02*
Y015529D01*
X025161Y01729D02*
X025319D01*
X02524Y017211D02*
Y017369D01*
X042771Y03041D02*
X042929D01*
X04285Y030331D02*
Y030489D01*
X017431Y01415D02*
X017589D01*
X01751Y014071D02*
Y014229D01*
X027791Y01369D02*
X027949D01*
X02787Y013611D02*
Y013769D01*
X024512Y0143D02*
X024669D01*
X024591Y014222D02*
Y014379D01*
X023751Y01573D02*
X023909D01*
X02383Y015651D02*
Y015809D01*
X027331Y0139D02*
X027489D01*
X02741Y013821D02*
Y013979D01*
X026731Y015217D02*
X026889D01*
X02681Y015139D02*
Y015296D01*
X041321Y04279D02*
X041479D01*
X0414Y042711D02*
Y042869D01*
X032791Y0246D02*
X032949D01*
X03287Y024521D02*
Y024679D01*
X032811Y02139D02*
X032969D01*
X03289Y021311D02*
Y021469D01*
X043181Y0227D02*
X043339D01*
X04326Y022621D02*
Y022779D01*
X039651Y0182D02*
X039809D01*
X03973Y018121D02*
Y018279D01*
X032881Y01819D02*
X033039D01*
X03296Y018111D02*
Y018269D01*
X019431Y04655D02*
X019589D01*
X01951Y046471D02*
Y046629D01*
X024931Y04653D02*
X025089D01*
X02501Y046451D02*
Y046609D01*
X027831Y04653D02*
X027989D01*
X02791Y046451D02*
Y046609D01*
X034971Y04655D02*
X035129D01*
X03505Y046471D02*
Y046629D01*
X041001Y04654D02*
X041159D01*
X04108Y046461D02*
Y046619D01*
X023581Y0311D02*
X023739D01*
X02366Y031021D02*
Y031179D01*
X043661Y02678D02*
X043819D01*
X04374Y026701D02*
Y026859D01*
X027941Y02963D02*
X028099D01*
X02802Y029551D02*
Y029709D01*
X026971Y03035D02*
X027129D01*
X02705Y030271D02*
Y030429D01*
X025191Y02453D02*
X025349D01*
X02527Y024451D02*
Y024609D01*
X024711Y02451D02*
X024869D01*
X02479Y024431D02*
Y024589D01*
X024741Y025D02*
X024899D01*
X02482Y024921D02*
Y025079D01*
X024271Y02497D02*
X024429D01*
X02435Y024891D02*
Y025049D01*
X024311Y02548D02*
X024469D01*
X02439Y025401D02*
Y025559D01*
X023801Y02541D02*
X023959D01*
X02388Y025331D02*
Y025489D01*
X023421Y01658D02*
X023579D01*
X0235Y016501D02*
Y016659D01*
X024831Y0189D02*
X024989D01*
X02491Y018821D02*
Y018979D01*
X025611Y01762D02*
X025769D01*
X02569Y017541D02*
Y017699D01*
X042761Y02183D02*
X042919D01*
X04284Y021751D02*
Y021909D01*
X040331Y02212D02*
X040489D01*
X04041Y022041D02*
Y022199D01*
X042061Y02152D02*
X042219D01*
X04214Y021441D02*
Y021599D01*
X043741Y0223D02*
X043899D01*
X04382Y022221D02*
Y022379D01*
X038631Y02319D02*
X038789D01*
X03871Y023111D02*
Y023269D01*
X040001Y02463D02*
X040159D01*
X04008Y024551D02*
Y024709D01*
X028642Y014722D02*
X028799D01*
X028721Y014643D02*
Y014801D01*
X029387Y01559D02*
X029544D01*
X029466Y015511D02*
Y015669D01*
X030531Y01559D02*
X030689D01*
X03061Y015511D02*
Y015669D01*
X029171Y01605D02*
X029329D01*
X02925Y015971D02*
Y016129D01*
X029171Y01507D02*
X029329D01*
X02925Y014991D02*
Y015149D01*
X034291Y0253D02*
X034449D01*
X03437Y025221D02*
Y025379D01*
X027167Y023946D02*
X027324D01*
X027246Y023867D02*
Y024025D01*
X023341Y027D02*
X023499D01*
X02342Y026921D02*
Y027079D01*
X023346Y028401D02*
X023503D01*
X023424Y028322D02*
Y028479D01*
X022591Y0276D02*
X022749D01*
X02267Y027521D02*
Y027679D01*
X022571Y0262D02*
X022729D01*
X02265Y026121D02*
Y026279D01*
X037704Y020278D02*
X037861D01*
X037782Y020199D02*
Y020357D01*
X027181Y02619D02*
X027338D01*
X027259Y026111D02*
Y026269D01*
X022721Y02986D02*
X022879D01*
X0228Y029781D02*
Y029939D01*
X026911Y01411D02*
X027069D01*
X02699Y014031D02*
Y014189D01*
X027251Y01324D02*
X027409D01*
X02733Y013161D02*
Y013319D01*
X021901Y015231D02*
X022059D01*
X02198Y015152D02*
Y01531D01*
X022961Y01573D02*
X023119D01*
X02304Y015651D02*
Y015809D01*
X022421Y01575D02*
X022579D01*
X0225Y015671D02*
Y015829D01*
X021891Y01573D02*
X022049D01*
X02197Y015651D02*
Y015809D01*
X022971Y01518D02*
X023129D01*
X02305Y015101D02*
Y015259D01*
X022401Y0152D02*
X022559D01*
X02248Y015121D02*
Y015279D01*
X027791Y01579D02*
X027949D01*
X02787Y015711D02*
Y015869D01*
X027281Y01578D02*
X027439D01*
X02736Y015701D02*
Y015859D01*
X026771Y01581D02*
X026929D01*
X02685Y015731D02*
Y015889D01*
X027791Y01516D02*
X027949D01*
X02787Y015081D02*
Y015239D01*
X027271Y01516D02*
X027429D01*
X02735Y015081D02*
Y015239D01*
X010721Y01185D02*
X010879D01*
X0108Y011771D02*
Y011929D01*
X034418Y034229D02*
X034918D01*
X034668Y033979D02*
Y034479D01*
X03442Y031235D02*
X03492D01*
X03467Y030985D02*
Y031485D01*
M02*
