G04*
G04 #@! TF.GenerationSoftware,Altium Limited,Altium Designer,21.9.2 (33)*
G04*
G04 Layer_Color=2752767*
%FSTAX24Y24*%
%MOIN*%
G70*
G04*
G04 #@! TF.SameCoordinates,8777FA3C-9CA2-4F10-8BE3-E232CA162E6C*
G04*
G04*
G04 #@! TF.FilePolarity,Positive*
G04*
G01*
G75*
%ADD105C,0.0020*%
%ADD106C,0.0027*%
%ADD107C,0.0013*%
D105*
X04762Y01112D02*
Y01128D01*
X04778D01*
Y01112D01*
X04762D01*
X04612D02*
Y01128D01*
X04628D01*
Y01112D01*
X04612D01*
X044029D02*
Y01128D01*
X044189D01*
Y01112D01*
X044029D01*
X042529D02*
Y01128D01*
X042689D01*
Y01112D01*
X042529D01*
X03692D02*
Y01128D01*
X03708D01*
Y01112D01*
X03692D01*
X03542D02*
Y01128D01*
X03558D01*
Y01112D01*
X03542D01*
X033379D02*
Y01128D01*
X033539D01*
Y01112D01*
X033379D01*
X031879D02*
Y01128D01*
X032039D01*
Y01112D01*
X031879D01*
X029579D02*
Y01128D01*
X029739D01*
Y01112D01*
X029579D01*
X028079D02*
Y01128D01*
X028239D01*
Y01112D01*
X028079D01*
X02232D02*
Y01128D01*
X02248D01*
Y01112D01*
X02232D01*
X02082D02*
Y01128D01*
X02098D01*
Y01112D01*
X02082D01*
X01447D02*
Y01128D01*
X01463D01*
Y01112D01*
X01447D01*
X01297D02*
Y01128D01*
X01313D01*
Y01112D01*
X01297D01*
X04145Y02022D02*
X04137Y02038D01*
X04153D01*
X04145Y02022D01*
Y02122D02*
X04137Y02138D01*
X04153D01*
X04145Y02122D01*
Y02222D02*
X04137Y02238D01*
X04153D01*
X04145Y02222D01*
Y02322D02*
X04137Y02338D01*
X04153D01*
X04145Y02322D01*
X04862Y02116D02*
X04866Y0212D01*
X0487D01*
X04866Y02124D01*
X0487Y02128D01*
X04866D01*
X04862Y02132D01*
X04858Y02128D01*
X04854D01*
X04858Y02124D01*
X04854Y0212D01*
X04858D01*
X04862Y02116D01*
Y02431D02*
X04866Y02435D01*
X0487D01*
X04866Y02439D01*
X0487Y02443D01*
X04866D01*
X04862Y02447D01*
X04858Y02443D01*
X04854D01*
X04858Y02439D01*
X04854Y02435D01*
X04858D01*
X04862Y02431D01*
X03897Y01112D02*
Y01128D01*
X03913D01*
Y01112D01*
X03897D01*
X04047D02*
Y01128D01*
X04063D01*
Y01112D01*
X04047D01*
X01382Y01792D02*
X01386Y018D01*
X01382Y01808D01*
X0139Y01804D01*
X01398Y01808D01*
X01394Y018D01*
X01398Y01792D01*
X0139Y01796D01*
X01382Y01792D01*
X01282D02*
X01286Y018D01*
X01282Y01808D01*
X0129Y01804D01*
X01298Y01808D01*
X01294Y018D01*
X01298Y01792D01*
X0129Y01796D01*
X01282Y01792D01*
X01182D02*
X01186Y018D01*
X01182Y01808D01*
X0119Y01804D01*
X01198Y01808D01*
X01194Y018D01*
X01198Y01792D01*
X0119Y01796D01*
X01182Y01792D01*
X01082D02*
X01086Y018D01*
X01082Y01808D01*
X0109Y01804D01*
X01098Y01808D01*
X01094Y018D01*
X01098Y01792D01*
X0109Y01796D01*
X01082Y01792D01*
Y02092D02*
X01086Y021D01*
X01082Y02108D01*
X0109Y02104D01*
X01098Y02108D01*
X01094Y021D01*
X01098Y02092D01*
X0109Y02096D01*
X01082Y02092D01*
X01182D02*
X01186Y021D01*
X01182Y02108D01*
X0119Y02104D01*
X01198Y02108D01*
X01194Y021D01*
X01198Y02092D01*
X0119Y02096D01*
X01182Y02092D01*
X01282D02*
X01286Y021D01*
X01282Y02108D01*
X0129Y02104D01*
X01298Y02108D01*
X01294Y021D01*
X01298Y02092D01*
X0129Y02096D01*
X01282Y02092D01*
X01382D02*
X01386Y021D01*
X01382Y02108D01*
X0139Y02104D01*
X01398Y02108D01*
X01394Y021D01*
X01398Y02092D01*
X0139Y02096D01*
X01382Y02092D01*
X04098Y03378D02*
Y03374D01*
X04106D01*
Y03378D01*
X0411D01*
Y03386D01*
X04106D01*
Y0339D01*
X04098D01*
Y03386D01*
X04094D01*
Y03378D01*
X04098D01*
Y03278D02*
Y03274D01*
X04106D01*
Y03278D01*
X0411D01*
Y03286D01*
X04106D01*
Y0329D01*
X04098D01*
Y03286D01*
X04094D01*
Y03278D01*
X04098D01*
Y03178D02*
Y03174D01*
X04106D01*
Y03178D01*
X0411D01*
Y03186D01*
X04106D01*
Y0319D01*
X04098D01*
Y03186D01*
X04094D01*
Y03178D01*
X04098D01*
X04759Y02768D02*
X04763D01*
X04767Y02772D01*
X04771Y02768D01*
X04775D01*
Y02772D01*
X04771Y02776D01*
X04775Y0278D01*
Y02784D01*
X04771D01*
X04767Y0278D01*
X04763Y02784D01*
X04759D01*
Y0278D01*
X04763Y02776D01*
X04759Y02772D01*
Y02768D01*
X045661D02*
X045701D01*
X045741Y02772D01*
X045781Y02768D01*
X045821D01*
Y02772D01*
X045781Y02776D01*
X045821Y0278D01*
Y02784D01*
X045781D01*
X045741Y0278D01*
X045701Y02784D01*
X045661D01*
Y0278D01*
X045701Y02776D01*
X045661Y02772D01*
Y02768D01*
X03904Y03577D02*
X03912Y03585D01*
X0392Y03577D01*
X03912Y03569D01*
X03904Y03577D01*
X04004D02*
X04012Y03585D01*
X0402Y03577D01*
X04012Y03569D01*
X04004Y03577D01*
X04411Y01467D02*
Y01483D01*
X04427D01*
Y01467D01*
X04411D01*
X04415Y01471D02*
Y01479D01*
X04423D01*
Y01471D01*
X04415D01*
X04411Y01567D02*
Y01583D01*
X04427D01*
Y01567D01*
X04411D01*
X04415Y01571D02*
Y01579D01*
X04423D01*
Y01571D01*
X04415D01*
X04411Y01647D02*
Y01663D01*
X04427D01*
Y01647D01*
X04411D01*
X04415Y01651D02*
Y01659D01*
X04423D01*
Y01651D01*
X04415D01*
X04411Y01747D02*
Y01763D01*
X04427D01*
Y01747D01*
X04411D01*
X04415Y01751D02*
Y01759D01*
X04423D01*
Y01751D01*
X04415D01*
X04075Y04569D02*
X04067Y04585D01*
X04083D01*
X04075Y04569D01*
Y04573D02*
X04071Y04581D01*
X04079D01*
X04075Y04573D01*
X04263Y0484D02*
X04255Y04856D01*
X04271D01*
X04263Y0484D01*
Y04844D02*
X04259Y04852D01*
X04267D01*
X04263Y04844D01*
X04075Y0484D02*
X04067Y04856D01*
X04083D01*
X04075Y0484D01*
Y04844D02*
X04071Y04852D01*
X04079D01*
X04075Y04844D01*
X04263Y04569D02*
X04255Y04585D01*
X04271D01*
X04263Y04569D01*
Y04573D02*
X04259Y04581D01*
X04267D01*
X04263Y04573D01*
X01982Y0484D02*
X01974Y04856D01*
X0199D01*
X01982Y0484D01*
Y04844D02*
X01978Y04852D01*
X01986D01*
X01982Y04844D01*
X01794Y04569D02*
X01786Y04585D01*
X01802D01*
X01794Y04569D01*
Y04573D02*
X0179Y04581D01*
X01798D01*
X01794Y04573D01*
X01982Y04569D02*
X01974Y04585D01*
X0199D01*
X01982Y04569D01*
Y04573D02*
X01978Y04581D01*
X01986D01*
X01982Y04573D01*
X01794Y0484D02*
X01786Y04856D01*
X01802D01*
X01794Y0484D01*
Y04844D02*
X0179Y04852D01*
X01798D01*
X01794Y04844D01*
X0378Y04569D02*
X03772Y04585D01*
X03788D01*
X0378Y04569D01*
Y04573D02*
X03776Y04581D01*
X03784D01*
X0378Y04573D01*
X03968Y0484D02*
X0396Y04856D01*
X03976D01*
X03968Y0484D01*
Y04844D02*
X03964Y04852D01*
X03972D01*
X03968Y04844D01*
X0378Y0484D02*
X03772Y04856D01*
X03788D01*
X0378Y0484D01*
Y04844D02*
X03776Y04852D01*
X03784D01*
X0378Y04844D01*
X03968Y04569D02*
X0396Y04585D01*
X03976D01*
X03968Y04569D01*
Y04573D02*
X03964Y04581D01*
X03972D01*
X03968Y04573D01*
X02262Y0484D02*
X02254Y04856D01*
X0227D01*
X02262Y0484D01*
Y04844D02*
X02258Y04852D01*
X02266D01*
X02262Y04844D01*
X02074Y04569D02*
X02066Y04585D01*
X02082D01*
X02074Y04569D01*
Y04573D02*
X0207Y04581D01*
X02078D01*
X02074Y04573D01*
X02262Y04569D02*
X02254Y04585D01*
X0227D01*
X02262Y04569D01*
Y04573D02*
X02258Y04581D01*
X02266D01*
X02262Y04573D01*
X02074Y0484D02*
X02066Y04856D01*
X02082D01*
X02074Y0484D01*
Y04844D02*
X0207Y04852D01*
X02078D01*
X02074Y04844D01*
X03477Y04569D02*
X03469Y04585D01*
X03485D01*
X03477Y04569D01*
Y04573D02*
X03473Y04581D01*
X03481D01*
X03477Y04573D01*
X03665Y0484D02*
X03657Y04856D01*
X03673D01*
X03665Y0484D01*
Y04844D02*
X03661Y04852D01*
X03669D01*
X03665Y04844D01*
X03477Y0484D02*
X03469Y04856D01*
X03485D01*
X03477Y0484D01*
Y04844D02*
X03473Y04852D01*
X03481D01*
X03477Y04844D01*
X03665Y04569D02*
X03657Y04585D01*
X03673D01*
X03665Y04569D01*
Y04573D02*
X03661Y04581D01*
X03669D01*
X03665Y04573D01*
X02542Y0484D02*
X02534Y04856D01*
X0255D01*
X02542Y0484D01*
Y04844D02*
X02538Y04852D01*
X02546D01*
X02542Y04844D01*
X02354Y04569D02*
X02346Y04585D01*
X02362D01*
X02354Y04569D01*
Y04573D02*
X0235Y04581D01*
X02358D01*
X02354Y04573D01*
X02542Y04569D02*
X02534Y04585D01*
X0255D01*
X02542Y04569D01*
Y04573D02*
X02538Y04581D01*
X02546D01*
X02542Y04573D01*
X02354Y0484D02*
X02346Y04856D01*
X02362D01*
X02354Y0484D01*
Y04844D02*
X0235Y04852D01*
X02358D01*
X02354Y04844D01*
X03172Y04569D02*
X03164Y04585D01*
X0318D01*
X03172Y04569D01*
Y04573D02*
X03168Y04581D01*
X03176D01*
X03172Y04573D01*
X0336Y0484D02*
X03352Y04856D01*
X03368D01*
X0336Y0484D01*
Y04844D02*
X03356Y04852D01*
X03364D01*
X0336Y04844D01*
X03172Y0484D02*
X03164Y04856D01*
X0318D01*
X03172Y0484D01*
Y04844D02*
X03168Y04852D01*
X03176D01*
X03172Y04844D01*
X0336Y04569D02*
X03352Y04585D01*
X03368D01*
X0336Y04569D01*
Y04573D02*
X03356Y04581D01*
X03364D01*
X0336Y04573D01*
X02827Y0484D02*
X02819Y04856D01*
X02835D01*
X02827Y0484D01*
Y04844D02*
X02823Y04852D01*
X02831D01*
X02827Y04844D01*
X02639Y04569D02*
X02631Y04585D01*
X02647D01*
X02639Y04569D01*
Y04573D02*
X02635Y04581D01*
X02643D01*
X02639Y04573D01*
X02827Y04569D02*
X02819Y04585D01*
X02835D01*
X02827Y04569D01*
Y04573D02*
X02823Y04581D01*
X02831D01*
X02827Y04573D01*
X02639Y0484D02*
X02631Y04856D01*
X02647D01*
X02639Y0484D01*
Y04844D02*
X02635Y04852D01*
X02643D01*
X02639Y04844D01*
X03005Y02611D02*
X02997Y02627D01*
X03013D01*
X03005Y02611D01*
Y02711D02*
X02997Y02727D01*
X03013D01*
X03005Y02711D01*
Y02811D02*
X02997Y02827D01*
X03013D01*
X03005Y02811D01*
Y02911D02*
X02997Y02927D01*
X03013D01*
X03005Y02911D01*
X0141Y04847D02*
X01414Y04851D01*
X01418D01*
X01414Y04855D01*
X01418Y04859D01*
X01414D01*
X0141Y04863D01*
X01406Y04859D01*
X01402D01*
X01406Y04855D01*
X01402Y04851D01*
X01406D01*
X0141Y04847D01*
Y04851D02*
X01412Y04853D01*
X01414D01*
X01412Y04855D01*
X01414Y04857D01*
X01412D01*
X0141Y04859D01*
X01408Y04857D01*
X01406D01*
X01408Y04855D01*
X01406Y04853D01*
X01408D01*
X0141Y04851D01*
X0161Y04747D02*
X01614Y04751D01*
X01618D01*
X01614Y04755D01*
X01618Y04759D01*
X01614D01*
X0161Y04763D01*
X01606Y04759D01*
X01602D01*
X01606Y04755D01*
X01602Y04751D01*
X01606D01*
X0161Y04747D01*
Y04751D02*
X01612Y04753D01*
X01614D01*
X01612Y04755D01*
X01614Y04757D01*
X01612D01*
X0161Y04759D01*
X01608Y04757D01*
X01606D01*
X01608Y04755D01*
X01606Y04753D01*
X01608D01*
X0161Y04751D01*
X0141Y04647D02*
X01414Y04651D01*
X01418D01*
X01414Y04655D01*
X01418Y04659D01*
X01414D01*
X0141Y04663D01*
X01406Y04659D01*
X01402D01*
X01406Y04655D01*
X01402Y04651D01*
X01406D01*
X0141Y04647D01*
Y04651D02*
X01412Y04653D01*
X01414D01*
X01412Y04655D01*
X01414Y04657D01*
X01412D01*
X0141Y04659D01*
X01408Y04657D01*
X01406D01*
X01408Y04655D01*
X01406Y04653D01*
X01408D01*
X0141Y04651D01*
X01967Y01842D02*
X01971Y0185D01*
X01967Y01858D01*
X01975Y01854D01*
X01983Y01858D01*
X01979Y0185D01*
X01983Y01842D01*
X01975Y01846D01*
X01967Y01842D01*
X02067D02*
X02071Y0185D01*
X02067Y01858D01*
X02075Y01854D01*
X02083Y01858D01*
X02079Y0185D01*
X02083Y01842D01*
X02075Y01846D01*
X02067Y01842D01*
X02167D02*
X02171Y0185D01*
X02167Y01858D01*
X02175Y01854D01*
X02183Y01858D01*
X02179Y0185D01*
X02183Y01842D01*
X02175Y01846D01*
X02167Y01842D01*
X02267D02*
X02271Y0185D01*
X02267Y01858D01*
X02275Y01854D01*
X02283Y01858D01*
X02279Y0185D01*
X02283Y01842D01*
X02275Y01846D01*
X02267Y01842D01*
Y02142D02*
X02271Y0215D01*
X02267Y02158D01*
X02275Y02154D01*
X02283Y02158D01*
X02279Y0215D01*
X02283Y02142D01*
X02275Y02146D01*
X02267Y02142D01*
X02167D02*
X02171Y0215D01*
X02167Y02158D01*
X02175Y02154D01*
X02183Y02158D01*
X02179Y0215D01*
X02183Y02142D01*
X02175Y02146D01*
X02167Y02142D01*
X02067D02*
X02071Y0215D01*
X02067Y02158D01*
X02075Y02154D01*
X02083Y02158D01*
X02079Y0215D01*
X02083Y02142D01*
X02075Y02146D01*
X02067Y02142D01*
X01967D02*
X01971Y0215D01*
X01967Y02158D01*
X01975Y02154D01*
X01983Y02158D01*
X01979Y0215D01*
X01983Y02142D01*
X01975Y02146D01*
X01967Y02142D01*
X01383Y01342D02*
X01387Y0135D01*
X01383Y01358D01*
X01391Y01354D01*
X01399Y01358D01*
X01395Y0135D01*
X01399Y01342D01*
X01391Y01346D01*
X01383Y01342D01*
X01387Y01346D02*
X01389Y0135D01*
X01387Y01354D01*
X01391Y01352D01*
X01395Y01354D01*
X01393Y0135D01*
X01395Y01346D01*
X01391Y01348D01*
X01387Y01346D01*
X01382Y01384D02*
X01386Y01392D01*
X01382Y014D01*
X0139Y01396D01*
X01398Y014D01*
X01394Y01392D01*
X01398Y01384D01*
X0139Y01388D01*
X01382Y01384D01*
X01386Y01388D02*
X01388Y01392D01*
X01386Y01396D01*
X0139Y01394D01*
X01394Y01396D01*
X01392Y01392D01*
X01394Y01388D01*
X0139Y0139D01*
X01386Y01388D01*
X01392Y01268D02*
X01396Y01276D01*
X01392Y01284D01*
X014Y0128D01*
X01408Y01284D01*
X01404Y01276D01*
X01408Y01268D01*
X014Y01272D01*
X01392Y01268D01*
X01396Y01272D02*
X01398Y01276D01*
X01396Y0128D01*
X014Y01278D01*
X01404Y0128D01*
X01402Y01276D01*
X01404Y01272D01*
X014Y01274D01*
X01396Y01272D01*
X015483Y017958D02*
X015523Y018038D01*
X015483Y018118D01*
X015563Y018078D01*
X015643Y018118D01*
X015603Y018038D01*
X015643Y017958D01*
X015563Y017998D01*
X015483Y017958D01*
X015523Y017998D02*
X015543Y018038D01*
X015523Y018078D01*
X015563Y018058D01*
X015603Y018078D01*
X015583Y018038D01*
X015603Y017998D01*
X015563Y018018D01*
X015523Y017998D01*
X02288Y01328D02*
X02292Y01336D01*
X02288Y01344D01*
X02296Y0134D01*
X02304Y01344D01*
X023Y01336D01*
X02304Y01328D01*
X02296Y01332D01*
X02288Y01328D01*
X02292Y01332D02*
X02294Y01336D01*
X02292Y0134D01*
X02296Y01338D01*
X023Y0134D01*
X02298Y01336D01*
X023Y01332D01*
X02296Y01334D01*
X02292Y01332D01*
X02228Y01401D02*
X02232Y01409D01*
X02228Y01417D01*
X02236Y01413D01*
X02244Y01417D01*
X0224Y01409D01*
X02244Y01401D01*
X02236Y01405D01*
X02228Y01401D01*
X02232Y01405D02*
X02234Y01409D01*
X02232Y01413D01*
X02236Y01411D01*
X0224Y01413D01*
X02238Y01409D01*
X0224Y01405D01*
X02236Y01407D01*
X02232Y01405D01*
X022549Y013694D02*
X022589Y013774D01*
X022549Y013854D01*
X022629Y013814D01*
X022709Y013854D01*
X022669Y013774D01*
X022709Y013694D01*
X022629Y013734D01*
X022549Y013694D01*
X022589Y013734D02*
X022609Y013774D01*
X022589Y013814D01*
X022629Y013794D01*
X022669Y013814D01*
X022649Y013774D01*
X022669Y013734D01*
X022629Y013754D01*
X022589Y013734D01*
X02259Y01294D02*
X02263Y01302D01*
X02259Y0131D01*
X02267Y01306D01*
X02275Y0131D01*
X02271Y01302D01*
X02275Y01294D01*
X02267Y01298D01*
X02259Y01294D01*
X02263Y01298D02*
X02265Y01302D01*
X02263Y01306D01*
X02267Y01304D01*
X02271Y01306D01*
X02269Y01302D01*
X02271Y01298D01*
X02267Y013D01*
X02263Y01298D01*
X018781Y012609D02*
X018821Y012689D01*
X018781Y012769D01*
X018861Y012729D01*
X018941Y012769D01*
X018901Y012689D01*
X018941Y012609D01*
X018861Y012649D01*
X018781Y012609D01*
X018821Y012649D02*
X018841Y012689D01*
X018821Y012729D01*
X018861Y012709D01*
X018901Y012729D01*
X018881Y012689D01*
X018901Y012649D01*
X018861Y012669D01*
X018821Y012649D01*
X01805Y01291D02*
X01809Y01299D01*
X01805Y01307D01*
X01813Y01303D01*
X01821Y01307D01*
X01817Y01299D01*
X01821Y01291D01*
X01813Y01295D01*
X01805Y01291D01*
X01809Y01295D02*
X01811Y01299D01*
X01809Y01303D01*
X01813Y01301D01*
X01817Y01303D01*
X01815Y01299D01*
X01817Y01295D01*
X01813Y01297D01*
X01809Y01295D01*
X04419Y02352D02*
X04423Y0236D01*
X04419Y02368D01*
X04427Y02364D01*
X04435Y02368D01*
X04431Y0236D01*
X04435Y02352D01*
X04427Y02356D01*
X04419Y02352D01*
X04423Y02356D02*
X04425Y0236D01*
X04423Y02364D01*
X04427Y02362D01*
X04431Y02364D01*
X04429Y0236D01*
X04431Y02356D01*
X04427Y02358D01*
X04423Y02356D01*
X024867Y038207D02*
X024907Y038287D01*
X024867Y038367D01*
X024947Y038327D01*
X025027Y038367D01*
X024987Y038287D01*
X025027Y038207D01*
X024947Y038247D01*
X024867Y038207D01*
X024907Y038247D02*
X024927Y038287D01*
X024907Y038327D01*
X024947Y038307D01*
X024987Y038327D01*
X024967Y038287D01*
X024987Y038247D01*
X024947Y038267D01*
X024907Y038247D01*
X024229Y039029D02*
X024269Y039109D01*
X024229Y039189D01*
X024309Y039149D01*
X024389Y039189D01*
X024349Y039109D01*
X024389Y039029D01*
X024309Y039069D01*
X024229Y039029D01*
X024269Y039069D02*
X024289Y039109D01*
X024269Y039149D01*
X024309Y039129D01*
X024349Y039149D01*
X024329Y039109D01*
X024349Y039069D01*
X024309Y039089D01*
X024269Y039069D01*
X01643Y01733D02*
X01647Y01741D01*
X01643Y01749D01*
X01651Y01745D01*
X01659Y01749D01*
X01655Y01741D01*
X01659Y01733D01*
X01651Y01737D01*
X01643Y01733D01*
X01647Y01737D02*
X01649Y01741D01*
X01647Y01745D01*
X01651Y01743D01*
X01655Y01745D01*
X01653Y01741D01*
X01655Y01737D01*
X01651Y01739D01*
X01647Y01737D01*
X01509Y014053D02*
X01513Y014133D01*
X01509Y014213D01*
X01517Y014173D01*
X01525Y014213D01*
X01521Y014133D01*
X01525Y014053D01*
X01517Y014093D01*
X01509Y014053D01*
X01513Y014093D02*
X01515Y014133D01*
X01513Y014173D01*
X01517Y014153D01*
X01521Y014173D01*
X01519Y014133D01*
X01521Y014093D01*
X01517Y014113D01*
X01513Y014093D01*
X014763Y01806D02*
X014803Y01814D01*
X014763Y01822D01*
X014843Y01818D01*
X014923Y01822D01*
X014883Y01814D01*
X014923Y01806D01*
X014843Y0181D01*
X014763Y01806D01*
X014803Y0181D02*
X014823Y01814D01*
X014803Y01818D01*
X014843Y01816D01*
X014883Y01818D01*
X014863Y01814D01*
X014883Y0181D01*
X014843Y01812D01*
X014803Y0181D01*
X01475Y01881D02*
X01479Y01889D01*
X01475Y01897D01*
X01483Y01893D01*
X01491Y01897D01*
X01487Y01889D01*
X01491Y01881D01*
X01483Y01885D01*
X01475Y01881D01*
X01479Y01885D02*
X01481Y01889D01*
X01479Y01893D01*
X01483Y01891D01*
X01487Y01893D01*
X01485Y01889D01*
X01487Y01885D01*
X01483Y01887D01*
X01479Y01885D01*
X01176Y01348D02*
X0118Y01356D01*
X01176Y01364D01*
X01184Y0136D01*
X01192Y01364D01*
X01188Y01356D01*
X01192Y01348D01*
X01184Y01352D01*
X01176Y01348D01*
X0118Y01352D02*
X01182Y01356D01*
X0118Y0136D01*
X01184Y01358D01*
X01188Y0136D01*
X01186Y01356D01*
X01188Y01352D01*
X01184Y01354D01*
X0118Y01352D01*
X011641Y013878D02*
X011681Y013958D01*
X011641Y014038D01*
X011721Y013998D01*
X011801Y014038D01*
X011761Y013958D01*
X011801Y013878D01*
X011721Y013918D01*
X011641Y013878D01*
X011681Y013918D02*
X011701Y013958D01*
X011681Y013998D01*
X011721Y013978D01*
X011761Y013998D01*
X011741Y013958D01*
X011761Y013918D01*
X011721Y013938D01*
X011681Y013918D01*
X011297Y014307D02*
X011337Y014387D01*
X011297Y014467D01*
X011377Y014427D01*
X011457Y014467D01*
X011417Y014387D01*
X011457Y014307D01*
X011377Y014347D01*
X011297Y014307D01*
X011337Y014347D02*
X011357Y014387D01*
X011337Y014427D01*
X011377Y014407D01*
X011417Y014427D01*
X011397Y014387D01*
X011417Y014347D01*
X011377Y014367D01*
X011337Y014347D01*
X01461Y0173D02*
X01465Y01738D01*
X01461Y01746D01*
X01469Y01742D01*
X01477Y01746D01*
X01473Y01738D01*
X01477Y0173D01*
X01469Y01734D01*
X01461Y0173D01*
X01465Y01734D02*
X01467Y01738D01*
X01465Y01742D01*
X01469Y0174D01*
X01473Y01742D01*
X01471Y01738D01*
X01473Y01734D01*
X01469Y01736D01*
X01465Y01734D01*
X01624Y019167D02*
X01628Y019247D01*
X01624Y019327D01*
X01632Y019287D01*
X0164Y019327D01*
X01636Y019247D01*
X0164Y019167D01*
X01632Y019207D01*
X01624Y019167D01*
X01628Y019207D02*
X0163Y019247D01*
X01628Y019287D01*
X01632Y019267D01*
X01636Y019287D01*
X01634Y019247D01*
X01636Y019207D01*
X01632Y019227D01*
X01628Y019207D01*
X03814Y04645D02*
X03818Y04653D01*
X03814Y04661D01*
X03822Y04657D01*
X0383Y04661D01*
X03826Y04653D01*
X0383Y04645D01*
X03822Y04649D01*
X03814Y04645D01*
X03818Y04649D02*
X0382Y04653D01*
X03818Y04657D01*
X03822Y04655D01*
X03826Y04657D01*
X03824Y04653D01*
X03826Y04649D01*
X03822Y04651D01*
X03818Y04649D01*
X03208Y04647D02*
X03212Y04655D01*
X03208Y04663D01*
X03216Y04659D01*
X03224Y04663D01*
X0322Y04655D01*
X03224Y04647D01*
X03216Y04651D01*
X03208Y04647D01*
X03212Y04651D02*
X03214Y04655D01*
X03212Y04659D01*
X03216Y04657D01*
X0322Y04659D01*
X03218Y04655D01*
X0322Y04651D01*
X03216Y04653D01*
X03212Y04651D01*
X02214Y04642D02*
X02218Y0465D01*
X02214Y04658D01*
X02222Y04654D01*
X0223Y04658D01*
X02226Y0465D01*
X0223Y04642D01*
X02222Y04646D01*
X02214Y04642D01*
X02218Y04646D02*
X0222Y0465D01*
X02218Y04654D01*
X02222Y04652D01*
X02226Y04654D01*
X02224Y0465D01*
X02226Y04646D01*
X02222Y04648D01*
X02218Y04646D01*
X02899Y01718D02*
X02903Y01726D01*
X02899Y01734D01*
X02907Y0173D01*
X02915Y01734D01*
X02911Y01726D01*
X02915Y01718D01*
X02907Y01722D01*
X02899Y01718D01*
X02903Y01722D02*
X02905Y01726D01*
X02903Y0173D01*
X02907Y01728D01*
X02911Y0173D01*
X02909Y01726D01*
X02911Y01722D01*
X02907Y01724D01*
X02903Y01722D01*
X04339Y02071D02*
X04343Y02079D01*
X04339Y02087D01*
X04347Y02083D01*
X04355Y02087D01*
X04351Y02079D01*
X04355Y02071D01*
X04347Y02075D01*
X04339Y02071D01*
X04343Y02075D02*
X04345Y02079D01*
X04343Y02083D01*
X04347Y02081D01*
X04351Y02083D01*
X04349Y02079D01*
X04351Y02075D01*
X04347Y02077D01*
X04343Y02075D01*
X01807Y0139D02*
X01811Y01398D01*
X01807Y01406D01*
X01815Y01402D01*
X01823Y01406D01*
X01819Y01398D01*
X01823Y0139D01*
X01815Y01394D01*
X01807Y0139D01*
X01811Y01394D02*
X01813Y01398D01*
X01811Y01402D01*
X01815Y014D01*
X01819Y01402D01*
X01817Y01398D01*
X01819Y01394D01*
X01815Y01396D01*
X01811Y01394D01*
X018Y01346D02*
X01804Y01354D01*
X018Y01362D01*
X01808Y01358D01*
X01816Y01362D01*
X01812Y01354D01*
X01816Y01346D01*
X01808Y0135D01*
X018Y01346D01*
X01804Y0135D02*
X01806Y01354D01*
X01804Y01358D01*
X01808Y01356D01*
X01812Y01358D01*
X0181Y01354D01*
X01812Y0135D01*
X01808Y01352D01*
X01804Y0135D01*
X01349Y01431D02*
X01353Y01439D01*
X01349Y01447D01*
X01357Y01443D01*
X01365Y01447D01*
X01361Y01439D01*
X01365Y01431D01*
X01357Y01435D01*
X01349Y01431D01*
X01353Y01435D02*
X01355Y01439D01*
X01353Y01443D01*
X01357Y01441D01*
X01361Y01443D01*
X01359Y01439D01*
X01361Y01435D01*
X01357Y01437D01*
X01353Y01435D01*
X01477Y01372D02*
X01481Y0138D01*
X01477Y01388D01*
X01485Y01384D01*
X01493Y01388D01*
X01489Y0138D01*
X01493Y01372D01*
X01485Y01376D01*
X01477Y01372D01*
X01481Y01376D02*
X01483Y0138D01*
X01481Y01384D01*
X01485Y01382D01*
X01489Y01384D01*
X01487Y0138D01*
X01489Y01376D01*
X01485Y01378D01*
X01481Y01376D01*
X01583Y01348D02*
X01587Y01356D01*
X01583Y01364D01*
X01591Y0136D01*
X01599Y01364D01*
X01595Y01356D01*
X01599Y01348D01*
X01591Y01352D01*
X01583Y01348D01*
X01587Y01352D02*
X01589Y01356D01*
X01587Y0136D01*
X01591Y01358D01*
X01595Y0136D01*
X01593Y01356D01*
X01595Y01352D01*
X01591Y01354D01*
X01587Y01352D01*
X01649Y01451D02*
X01653Y01459D01*
X01649Y01467D01*
X01657Y01463D01*
X01665Y01467D01*
X01661Y01459D01*
X01665Y01451D01*
X01657Y01455D01*
X01649Y01451D01*
X01653Y01455D02*
X01655Y01459D01*
X01653Y01463D01*
X01657Y01461D01*
X01661Y01463D01*
X01659Y01459D01*
X01661Y01455D01*
X01657Y01457D01*
X01653Y01455D01*
X02041Y01347D02*
X02045Y01355D01*
X02041Y01363D01*
X02049Y01359D01*
X02057Y01363D01*
X02053Y01355D01*
X02057Y01347D01*
X02049Y01351D01*
X02041Y01347D01*
X02045Y01351D02*
X02047Y01355D01*
X02045Y01359D01*
X02049Y01357D01*
X02053Y01359D01*
X02051Y01355D01*
X02053Y01351D01*
X02049Y01353D01*
X02045Y01351D01*
X01994Y01403D02*
X01998Y01411D01*
X01994Y01419D01*
X02002Y01415D01*
X0201Y01419D01*
X02006Y01411D01*
X0201Y01403D01*
X02002Y01407D01*
X01994Y01403D01*
X01998Y01407D02*
X02Y01411D01*
X01998Y01415D01*
X02002Y01413D01*
X02006Y01415D01*
X02004Y01411D01*
X02006Y01407D01*
X02002Y01409D01*
X01998Y01407D01*
X02042Y0139D02*
X02046Y01398D01*
X02042Y01406D01*
X0205Y01402D01*
X02058Y01406D01*
X02054Y01398D01*
X02058Y0139D01*
X0205Y01394D01*
X02042Y0139D01*
X02046Y01394D02*
X02048Y01398D01*
X02046Y01402D01*
X0205Y014D01*
X02054Y01402D01*
X02052Y01398D01*
X02054Y01394D01*
X0205Y01396D01*
X02046Y01394D01*
X02381Y01392D02*
X02385Y014D01*
X02381Y01408D01*
X02389Y01404D01*
X02397Y01408D01*
X02393Y014D01*
X02397Y01392D01*
X02389Y01396D01*
X02381Y01392D01*
X02385Y01396D02*
X02387Y014D01*
X02385Y01404D01*
X02389Y01402D01*
X02393Y01404D01*
X02391Y014D01*
X02393Y01396D01*
X02389Y01398D01*
X02385Y01396D01*
X02383Y01343D02*
X02387Y01351D01*
X02383Y01359D01*
X02391Y01355D01*
X02399Y01359D01*
X02395Y01351D01*
X02399Y01343D01*
X02391Y01347D01*
X02383Y01343D01*
X02387Y01347D02*
X02389Y01351D01*
X02387Y01355D01*
X02391Y01353D01*
X02395Y01355D01*
X02393Y01351D01*
X02395Y01347D01*
X02391Y01349D01*
X02387Y01347D01*
X02519Y01537D02*
X02523Y01545D01*
X02519Y01553D01*
X02527Y01549D01*
X02535Y01553D01*
X02531Y01545D01*
X02535Y01537D01*
X02527Y01541D01*
X02519Y01537D01*
X02523Y01541D02*
X02525Y01545D01*
X02523Y01549D01*
X02527Y01547D01*
X02531Y01549D01*
X02529Y01545D01*
X02531Y01541D01*
X02527Y01543D01*
X02523Y01541D01*
X02516Y01721D02*
X0252Y01729D01*
X02516Y01737D01*
X02524Y01733D01*
X02532Y01737D01*
X02528Y01729D01*
X02532Y01721D01*
X02524Y01725D01*
X02516Y01721D01*
X0252Y01725D02*
X02522Y01729D01*
X0252Y01733D01*
X02524Y01731D01*
X02528Y01733D01*
X02526Y01729D01*
X02528Y01725D01*
X02524Y01727D01*
X0252Y01725D01*
X04277Y03033D02*
X04281Y03041D01*
X04277Y03049D01*
X04285Y03045D01*
X04293Y03049D01*
X04289Y03041D01*
X04293Y03033D01*
X04285Y03037D01*
X04277Y03033D01*
X04281Y03037D02*
X04283Y03041D01*
X04281Y03045D01*
X04285Y03043D01*
X04289Y03045D01*
X04287Y03041D01*
X04289Y03037D01*
X04285Y03039D01*
X04281Y03037D01*
X01743Y01407D02*
X01747Y01415D01*
X01743Y01423D01*
X01751Y01419D01*
X01759Y01423D01*
X01755Y01415D01*
X01759Y01407D01*
X01751Y01411D01*
X01743Y01407D01*
X01747Y01411D02*
X01749Y01415D01*
X01747Y01419D01*
X01751Y01417D01*
X01755Y01419D01*
X01753Y01415D01*
X01755Y01411D01*
X01751Y01413D01*
X01747Y01411D01*
X02779Y01361D02*
X02783Y01369D01*
X02779Y01377D01*
X02787Y01373D01*
X02795Y01377D01*
X02791Y01369D01*
X02795Y01361D01*
X02787Y01365D01*
X02779Y01361D01*
X02783Y01365D02*
X02785Y01369D01*
X02783Y01373D01*
X02787Y01371D01*
X02791Y01373D01*
X02789Y01369D01*
X02791Y01365D01*
X02787Y01367D01*
X02783Y01365D01*
X024511Y01422D02*
X024551Y0143D01*
X024511Y01438D01*
X024591Y01434D01*
X024671Y01438D01*
X024631Y0143D01*
X024671Y01422D01*
X024591Y01426D01*
X024511Y01422D01*
X024551Y01426D02*
X024571Y0143D01*
X024551Y01434D01*
X024591Y01432D01*
X024631Y01434D01*
X024611Y0143D01*
X024631Y01426D01*
X024591Y01428D01*
X024551Y01426D01*
X02375Y01565D02*
X02379Y01573D01*
X02375Y01581D01*
X02383Y01577D01*
X02391Y01581D01*
X02387Y01573D01*
X02391Y01565D01*
X02383Y01569D01*
X02375Y01565D01*
X02379Y01569D02*
X02381Y01573D01*
X02379Y01577D01*
X02383Y01575D01*
X02387Y01577D01*
X02385Y01573D01*
X02387Y01569D01*
X02383Y01571D01*
X02379Y01569D01*
X02733Y01382D02*
X02737Y0139D01*
X02733Y01398D01*
X02741Y01394D01*
X02749Y01398D01*
X02745Y0139D01*
X02749Y01382D01*
X02741Y01386D01*
X02733Y01382D01*
X02737Y01386D02*
X02739Y0139D01*
X02737Y01394D01*
X02741Y01392D01*
X02745Y01394D01*
X02743Y0139D01*
X02745Y01386D01*
X02741Y01388D01*
X02737Y01386D01*
X02673Y015137D02*
X02677Y015217D01*
X02673Y015297D01*
X02681Y015257D01*
X02689Y015297D01*
X02685Y015217D01*
X02689Y015137D01*
X02681Y015177D01*
X02673Y015137D01*
X02677Y015177D02*
X02679Y015217D01*
X02677Y015257D01*
X02681Y015237D01*
X02685Y015257D01*
X02683Y015217D01*
X02685Y015177D01*
X02681Y015197D01*
X02677Y015177D01*
X04132Y04271D02*
X04136Y04279D01*
X04132Y04287D01*
X0414Y04283D01*
X04148Y04287D01*
X04144Y04279D01*
X04148Y04271D01*
X0414Y04275D01*
X04132Y04271D01*
X04136Y04275D02*
X04138Y04279D01*
X04136Y04283D01*
X0414Y04281D01*
X04144Y04283D01*
X04142Y04279D01*
X04144Y04275D01*
X0414Y04277D01*
X04136Y04275D01*
X03279Y02452D02*
X03283Y0246D01*
X03279Y02468D01*
X03287Y02464D01*
X03295Y02468D01*
X03291Y0246D01*
X03295Y02452D01*
X03287Y02456D01*
X03279Y02452D01*
X03283Y02456D02*
X03285Y0246D01*
X03283Y02464D01*
X03287Y02462D01*
X03291Y02464D01*
X03289Y0246D01*
X03291Y02456D01*
X03287Y02458D01*
X03283Y02456D01*
X03281Y02131D02*
X03285Y02139D01*
X03281Y02147D01*
X03289Y02143D01*
X03297Y02147D01*
X03293Y02139D01*
X03297Y02131D01*
X03289Y02135D01*
X03281Y02131D01*
X03285Y02135D02*
X03287Y02139D01*
X03285Y02143D01*
X03289Y02141D01*
X03293Y02143D01*
X03291Y02139D01*
X03293Y02135D01*
X03289Y02137D01*
X03285Y02135D01*
X04318Y02262D02*
X04322Y0227D01*
X04318Y02278D01*
X04326Y02274D01*
X04334Y02278D01*
X0433Y0227D01*
X04334Y02262D01*
X04326Y02266D01*
X04318Y02262D01*
X04322Y02266D02*
X04324Y0227D01*
X04322Y02274D01*
X04326Y02272D01*
X0433Y02274D01*
X04328Y0227D01*
X0433Y02266D01*
X04326Y02268D01*
X04322Y02266D01*
X03965Y01812D02*
X03969Y0182D01*
X03965Y01828D01*
X03973Y01824D01*
X03981Y01828D01*
X03977Y0182D01*
X03981Y01812D01*
X03973Y01816D01*
X03965Y01812D01*
X03969Y01816D02*
X03971Y0182D01*
X03969Y01824D01*
X03973Y01822D01*
X03977Y01824D01*
X03975Y0182D01*
X03977Y01816D01*
X03973Y01818D01*
X03969Y01816D01*
X03288Y01811D02*
X03292Y01819D01*
X03288Y01827D01*
X03296Y01823D01*
X03304Y01827D01*
X033Y01819D01*
X03304Y01811D01*
X03296Y01815D01*
X03288Y01811D01*
X03292Y01815D02*
X03294Y01819D01*
X03292Y01823D01*
X03296Y01821D01*
X033Y01823D01*
X03298Y01819D01*
X033Y01815D01*
X03296Y01817D01*
X03292Y01815D01*
X01943Y04647D02*
X01947Y04655D01*
X01943Y04663D01*
X01951Y04659D01*
X01959Y04663D01*
X01955Y04655D01*
X01959Y04647D01*
X01951Y04651D01*
X01943Y04647D01*
X01947Y04651D02*
X01949Y04655D01*
X01947Y04659D01*
X01951Y04657D01*
X01955Y04659D01*
X01953Y04655D01*
X01955Y04651D01*
X01951Y04653D01*
X01947Y04651D01*
X02493Y04645D02*
X02497Y04653D01*
X02493Y04661D01*
X02501Y04657D01*
X02509Y04661D01*
X02505Y04653D01*
X02509Y04645D01*
X02501Y04649D01*
X02493Y04645D01*
X02497Y04649D02*
X02499Y04653D01*
X02497Y04657D01*
X02501Y04655D01*
X02505Y04657D01*
X02503Y04653D01*
X02505Y04649D01*
X02501Y04651D01*
X02497Y04649D01*
X02783Y04645D02*
X02787Y04653D01*
X02783Y04661D01*
X02791Y04657D01*
X02799Y04661D01*
X02795Y04653D01*
X02799Y04645D01*
X02791Y04649D01*
X02783Y04645D01*
X02787Y04649D02*
X02789Y04653D01*
X02787Y04657D01*
X02791Y04655D01*
X02795Y04657D01*
X02793Y04653D01*
X02795Y04649D01*
X02791Y04651D01*
X02787Y04649D01*
X03497Y04647D02*
X03501Y04655D01*
X03497Y04663D01*
X03505Y04659D01*
X03513Y04663D01*
X03509Y04655D01*
X03513Y04647D01*
X03505Y04651D01*
X03497Y04647D01*
X03501Y04651D02*
X03503Y04655D01*
X03501Y04659D01*
X03505Y04657D01*
X03509Y04659D01*
X03507Y04655D01*
X03509Y04651D01*
X03505Y04653D01*
X03501Y04651D01*
X041Y04646D02*
X04104Y04654D01*
X041Y04662D01*
X04108Y04658D01*
X04116Y04662D01*
X04112Y04654D01*
X04116Y04646D01*
X04108Y0465D01*
X041Y04646D01*
X04104Y0465D02*
X04106Y04654D01*
X04104Y04658D01*
X04108Y04656D01*
X04112Y04658D01*
X0411Y04654D01*
X04112Y0465D01*
X04108Y04652D01*
X04104Y0465D01*
X02358Y03102D02*
X02362Y0311D01*
X02358Y03118D01*
X02366Y03114D01*
X02374Y03118D01*
X0237Y0311D01*
X02374Y03102D01*
X02366Y03106D01*
X02358Y03102D01*
X02362Y03106D02*
X02364Y0311D01*
X02362Y03114D01*
X02366Y03112D01*
X0237Y03114D01*
X02368Y0311D01*
X0237Y03106D01*
X02366Y03108D01*
X02362Y03106D01*
X04366Y0267D02*
X0437Y02678D01*
X04366Y02686D01*
X04374Y02682D01*
X04382Y02686D01*
X04378Y02678D01*
X04382Y0267D01*
X04374Y02674D01*
X04366Y0267D01*
X0437Y02674D02*
X04372Y02678D01*
X0437Y02682D01*
X04374Y0268D01*
X04378Y02682D01*
X04376Y02678D01*
X04378Y02674D01*
X04374Y02676D01*
X0437Y02674D01*
X02794Y02955D02*
X02798Y02963D01*
X02794Y02971D01*
X02802Y02967D01*
X0281Y02971D01*
X02806Y02963D01*
X0281Y02955D01*
X02802Y02959D01*
X02794Y02955D01*
X02798Y02959D02*
X028Y02963D01*
X02798Y02967D01*
X02802Y02965D01*
X02806Y02967D01*
X02804Y02963D01*
X02806Y02959D01*
X02802Y02961D01*
X02798Y02959D01*
X02697Y03027D02*
X02701Y03035D01*
X02697Y03043D01*
X02705Y03039D01*
X02713Y03043D01*
X02709Y03035D01*
X02713Y03027D01*
X02705Y03031D01*
X02697Y03027D01*
X02701Y03031D02*
X02703Y03035D01*
X02701Y03039D01*
X02705Y03037D01*
X02709Y03039D01*
X02707Y03035D01*
X02709Y03031D01*
X02705Y03033D01*
X02701Y03031D01*
X02519Y02445D02*
X02523Y02453D01*
X02519Y02461D01*
X02527Y02457D01*
X02535Y02461D01*
X02531Y02453D01*
X02535Y02445D01*
X02527Y02449D01*
X02519Y02445D01*
X02523Y02449D02*
X02525Y02453D01*
X02523Y02457D01*
X02527Y02455D01*
X02531Y02457D01*
X02529Y02453D01*
X02531Y02449D01*
X02527Y02451D01*
X02523Y02449D01*
X02471Y02443D02*
X02475Y02451D01*
X02471Y02459D01*
X02479Y02455D01*
X02487Y02459D01*
X02483Y02451D01*
X02487Y02443D01*
X02479Y02447D01*
X02471Y02443D01*
X02475Y02447D02*
X02477Y02451D01*
X02475Y02455D01*
X02479Y02453D01*
X02483Y02455D01*
X02481Y02451D01*
X02483Y02447D01*
X02479Y02449D01*
X02475Y02447D01*
X02474Y02492D02*
X02478Y025D01*
X02474Y02508D01*
X02482Y02504D01*
X0249Y02508D01*
X02486Y025D01*
X0249Y02492D01*
X02482Y02496D01*
X02474Y02492D01*
X02478Y02496D02*
X0248Y025D01*
X02478Y02504D01*
X02482Y02502D01*
X02486Y02504D01*
X02484Y025D01*
X02486Y02496D01*
X02482Y02498D01*
X02478Y02496D01*
X02427Y02489D02*
X02431Y02497D01*
X02427Y02505D01*
X02435Y02501D01*
X02443Y02505D01*
X02439Y02497D01*
X02443Y02489D01*
X02435Y02493D01*
X02427Y02489D01*
X02431Y02493D02*
X02433Y02497D01*
X02431Y02501D01*
X02435Y02499D01*
X02439Y02501D01*
X02437Y02497D01*
X02439Y02493D01*
X02435Y02495D01*
X02431Y02493D01*
Y0254D02*
X02435Y02548D01*
X02431Y02556D01*
X02439Y02552D01*
X02447Y02556D01*
X02443Y02548D01*
X02447Y0254D01*
X02439Y02544D01*
X02431Y0254D01*
X02435Y02544D02*
X02437Y02548D01*
X02435Y02552D01*
X02439Y0255D01*
X02443Y02552D01*
X02441Y02548D01*
X02443Y02544D01*
X02439Y02546D01*
X02435Y02544D01*
X0238Y02533D02*
X02384Y02541D01*
X0238Y02549D01*
X02388Y02545D01*
X02396Y02549D01*
X02392Y02541D01*
X02396Y02533D01*
X02388Y02537D01*
X0238Y02533D01*
X02384Y02537D02*
X02386Y02541D01*
X02384Y02545D01*
X02388Y02543D01*
X02392Y02545D01*
X0239Y02541D01*
X02392Y02537D01*
X02388Y02539D01*
X02384Y02537D01*
X02342Y0165D02*
X02346Y01658D01*
X02342Y01666D01*
X0235Y01662D01*
X02358Y01666D01*
X02354Y01658D01*
X02358Y0165D01*
X0235Y01654D01*
X02342Y0165D01*
X02346Y01654D02*
X02348Y01658D01*
X02346Y01662D01*
X0235Y0166D01*
X02354Y01662D01*
X02352Y01658D01*
X02354Y01654D01*
X0235Y01656D01*
X02346Y01654D01*
X02483Y01882D02*
X02487Y0189D01*
X02483Y01898D01*
X02491Y01894D01*
X02499Y01898D01*
X02495Y0189D01*
X02499Y01882D01*
X02491Y01886D01*
X02483Y01882D01*
X02487Y01886D02*
X02489Y0189D01*
X02487Y01894D01*
X02491Y01892D01*
X02495Y01894D01*
X02493Y0189D01*
X02495Y01886D01*
X02491Y01888D01*
X02487Y01886D01*
X02561Y01754D02*
X02565Y01762D01*
X02561Y0177D01*
X02569Y01766D01*
X02577Y0177D01*
X02573Y01762D01*
X02577Y01754D01*
X02569Y01758D01*
X02561Y01754D01*
X02565Y01758D02*
X02567Y01762D01*
X02565Y01766D01*
X02569Y01764D01*
X02573Y01766D01*
X02571Y01762D01*
X02573Y01758D01*
X02569Y0176D01*
X02565Y01758D01*
X04276Y02175D02*
X0428Y02183D01*
X04276Y02191D01*
X04284Y02187D01*
X04292Y02191D01*
X04288Y02183D01*
X04292Y02175D01*
X04284Y02179D01*
X04276Y02175D01*
X0428Y02179D02*
X04282Y02183D01*
X0428Y02187D01*
X04284Y02185D01*
X04288Y02187D01*
X04286Y02183D01*
X04288Y02179D01*
X04284Y02181D01*
X0428Y02179D01*
X04033Y02204D02*
X04037Y02212D01*
X04033Y0222D01*
X04041Y02216D01*
X04049Y0222D01*
X04045Y02212D01*
X04049Y02204D01*
X04041Y02208D01*
X04033Y02204D01*
X04037Y02208D02*
X04039Y02212D01*
X04037Y02216D01*
X04041Y02214D01*
X04045Y02216D01*
X04043Y02212D01*
X04045Y02208D01*
X04041Y0221D01*
X04037Y02208D01*
X04206Y02144D02*
X0421Y02152D01*
X04206Y0216D01*
X04214Y02156D01*
X04222Y0216D01*
X04218Y02152D01*
X04222Y02144D01*
X04214Y02148D01*
X04206Y02144D01*
X0421Y02148D02*
X04212Y02152D01*
X0421Y02156D01*
X04214Y02154D01*
X04218Y02156D01*
X04216Y02152D01*
X04218Y02148D01*
X04214Y0215D01*
X0421Y02148D01*
X04374Y02222D02*
X04378Y0223D01*
X04374Y02238D01*
X04382Y02234D01*
X0439Y02238D01*
X04386Y0223D01*
X0439Y02222D01*
X04382Y02226D01*
X04374Y02222D01*
X04378Y02226D02*
X0438Y0223D01*
X04378Y02234D01*
X04382Y02232D01*
X04386Y02234D01*
X04384Y0223D01*
X04386Y02226D01*
X04382Y02228D01*
X04378Y02226D01*
X03863Y02311D02*
X03867Y02319D01*
X03863Y02327D01*
X03871Y02323D01*
X03879Y02327D01*
X03875Y02319D01*
X03879Y02311D01*
X03871Y02315D01*
X03863Y02311D01*
X03867Y02315D02*
X03869Y02319D01*
X03867Y02323D01*
X03871Y02321D01*
X03875Y02323D01*
X03873Y02319D01*
X03875Y02315D01*
X03871Y02317D01*
X03867Y02315D01*
X04Y02455D02*
X04004Y02463D01*
X04Y02471D01*
X04008Y02467D01*
X04016Y02471D01*
X04012Y02463D01*
X04016Y02455D01*
X04008Y02459D01*
X04Y02455D01*
X04004Y02459D02*
X04006Y02463D01*
X04004Y02467D01*
X04008Y02465D01*
X04012Y02467D01*
X0401Y02463D01*
X04012Y02459D01*
X04008Y02461D01*
X04004Y02459D01*
X028641Y014642D02*
X028681Y014722D01*
X028641Y014802D01*
X028721Y014762D01*
X028801Y014802D01*
X028761Y014722D01*
X028801Y014642D01*
X028721Y014682D01*
X028641Y014642D01*
X028681Y014682D02*
X028701Y014722D01*
X028681Y014762D01*
X028721Y014742D01*
X028761Y014762D01*
X028741Y014722D01*
X028761Y014682D01*
X028721Y014702D01*
X028681Y014682D01*
X029386Y01551D02*
X029426Y01559D01*
X029386Y01567D01*
X029466Y01563D01*
X029546Y01567D01*
X029506Y01559D01*
X029546Y01551D01*
X029466Y01555D01*
X029386Y01551D01*
X029426Y01555D02*
X029446Y01559D01*
X029426Y01563D01*
X029466Y01561D01*
X029506Y01563D01*
X029486Y01559D01*
X029506Y01555D01*
X029466Y01557D01*
X029426Y01555D01*
X03053Y01551D02*
X03057Y01559D01*
X03053Y01567D01*
X03061Y01563D01*
X03069Y01567D01*
X03065Y01559D01*
X03069Y01551D01*
X03061Y01555D01*
X03053Y01551D01*
X03057Y01555D02*
X03059Y01559D01*
X03057Y01563D01*
X03061Y01561D01*
X03065Y01563D01*
X03063Y01559D01*
X03065Y01555D01*
X03061Y01557D01*
X03057Y01555D01*
X02917Y01597D02*
X02921Y01605D01*
X02917Y01613D01*
X02925Y01609D01*
X02933Y01613D01*
X02929Y01605D01*
X02933Y01597D01*
X02925Y01601D01*
X02917Y01597D01*
X02921Y01601D02*
X02923Y01605D01*
X02921Y01609D01*
X02925Y01607D01*
X02929Y01609D01*
X02927Y01605D01*
X02929Y01601D01*
X02925Y01603D01*
X02921Y01601D01*
X02917Y01499D02*
X02921Y01507D01*
X02917Y01515D01*
X02925Y01511D01*
X02933Y01515D01*
X02929Y01507D01*
X02933Y01499D01*
X02925Y01503D01*
X02917Y01499D01*
X02921Y01503D02*
X02923Y01507D01*
X02921Y01511D01*
X02925Y01509D01*
X02929Y01511D01*
X02927Y01507D01*
X02929Y01503D01*
X02925Y01505D01*
X02921Y01503D01*
X03429Y02522D02*
X03433Y0253D01*
X03429Y02538D01*
X03437Y02534D01*
X03445Y02538D01*
X03441Y0253D01*
X03445Y02522D01*
X03437Y02526D01*
X03429Y02522D01*
X03433Y02526D02*
X03435Y0253D01*
X03433Y02534D01*
X03437Y02532D01*
X03441Y02534D01*
X03439Y0253D01*
X03441Y02526D01*
X03437Y02528D01*
X03433Y02526D01*
X027166Y023866D02*
X027206Y023946D01*
X027166Y024026D01*
X027246Y023986D01*
X027326Y024026D01*
X027286Y023946D01*
X027326Y023866D01*
X027246Y023906D01*
X027166Y023866D01*
X027206Y023906D02*
X027226Y023946D01*
X027206Y023986D01*
X027246Y023966D01*
X027286Y023986D01*
X027266Y023946D01*
X027286Y023906D01*
X027246Y023926D01*
X027206Y023906D01*
X02334Y02692D02*
X02338Y027D01*
X02334Y02708D01*
X02342Y02704D01*
X0235Y02708D01*
X02346Y027D01*
X0235Y02692D01*
X02342Y02696D01*
X02334Y02692D01*
X02338Y02696D02*
X0234Y027D01*
X02338Y02704D01*
X02342Y02702D01*
X02346Y02704D01*
X02344Y027D01*
X02346Y02696D01*
X02342Y02698D01*
X02338Y02696D01*
X023344Y028321D02*
X023384Y028401D01*
X023344Y028481D01*
X023424Y028441D01*
X023504Y028481D01*
X023464Y028401D01*
X023504Y028321D01*
X023424Y028361D01*
X023344Y028321D01*
X023384Y028361D02*
X023404Y028401D01*
X023384Y028441D01*
X023424Y028421D01*
X023464Y028441D01*
X023444Y028401D01*
X023464Y028361D01*
X023424Y028381D01*
X023384Y028361D01*
X02259Y02752D02*
X02263Y0276D01*
X02259Y02768D01*
X02267Y02764D01*
X02275Y02768D01*
X02271Y0276D01*
X02275Y02752D01*
X02267Y02756D01*
X02259Y02752D01*
X02263Y02756D02*
X02265Y0276D01*
X02263Y02764D01*
X02267Y02762D01*
X02271Y02764D01*
X02269Y0276D01*
X02271Y02756D01*
X02267Y02758D01*
X02263Y02756D01*
X02257Y02612D02*
X02261Y0262D01*
X02257Y02628D01*
X02265Y02624D01*
X02273Y02628D01*
X02269Y0262D01*
X02273Y02612D01*
X02265Y02616D01*
X02257Y02612D01*
X02261Y02616D02*
X02263Y0262D01*
X02261Y02624D01*
X02265Y02622D01*
X02269Y02624D01*
X02267Y0262D01*
X02269Y02616D01*
X02265Y02618D01*
X02261Y02616D01*
X037702Y020198D02*
X037742Y020278D01*
X037702Y020358D01*
X037782Y020318D01*
X037862Y020358D01*
X037822Y020278D01*
X037862Y020198D01*
X037782Y020238D01*
X037702Y020198D01*
X037742Y020238D02*
X037762Y020278D01*
X037742Y020318D01*
X037782Y020298D01*
X037822Y020318D01*
X037802Y020278D01*
X037822Y020238D01*
X037782Y020258D01*
X037742Y020238D01*
X027179Y02611D02*
X027219Y02619D01*
X027179Y02627D01*
X027259Y02623D01*
X027339Y02627D01*
X027299Y02619D01*
X027339Y02611D01*
X027259Y02615D01*
X027179Y02611D01*
X027219Y02615D02*
X027239Y02619D01*
X027219Y02623D01*
X027259Y02621D01*
X027299Y02623D01*
X027279Y02619D01*
X027299Y02615D01*
X027259Y02617D01*
X027219Y02615D01*
X02272Y02978D02*
X02276Y02986D01*
X02272Y02994D01*
X0228Y0299D01*
X02288Y02994D01*
X02284Y02986D01*
X02288Y02978D01*
X0228Y02982D01*
X02272Y02978D01*
X02276Y02982D02*
X02278Y02986D01*
X02276Y0299D01*
X0228Y02988D01*
X02284Y0299D01*
X02282Y02986D01*
X02284Y02982D01*
X0228Y02984D01*
X02276Y02982D01*
X02691Y01403D02*
X02695Y01411D01*
X02691Y01419D01*
X02699Y01415D01*
X02707Y01419D01*
X02703Y01411D01*
X02707Y01403D01*
X02699Y01407D01*
X02691Y01403D01*
X02695Y01407D02*
X02697Y01411D01*
X02695Y01415D01*
X02699Y01413D01*
X02703Y01415D01*
X02701Y01411D01*
X02703Y01407D01*
X02699Y01409D01*
X02695Y01407D01*
X02725Y01316D02*
X02729Y01324D01*
X02725Y01332D01*
X02733Y01328D01*
X02741Y01332D01*
X02737Y01324D01*
X02741Y01316D01*
X02733Y0132D01*
X02725Y01316D01*
X02729Y0132D02*
X02731Y01324D01*
X02729Y01328D01*
X02733Y01326D01*
X02737Y01328D01*
X02735Y01324D01*
X02737Y0132D01*
X02733Y01322D01*
X02729Y0132D01*
X0219Y015151D02*
X02194Y015231D01*
X0219Y015311D01*
X02198Y015271D01*
X02206Y015311D01*
X02202Y015231D01*
X02206Y015151D01*
X02198Y015191D01*
X0219Y015151D01*
X02194Y015191D02*
X02196Y015231D01*
X02194Y015271D01*
X02198Y015251D01*
X02202Y015271D01*
X022Y015231D01*
X02202Y015191D01*
X02198Y015211D01*
X02194Y015191D01*
X02296Y01565D02*
X023Y01573D01*
X02296Y01581D01*
X02304Y01577D01*
X02312Y01581D01*
X02308Y01573D01*
X02312Y01565D01*
X02304Y01569D01*
X02296Y01565D01*
X023Y01569D02*
X02302Y01573D01*
X023Y01577D01*
X02304Y01575D01*
X02308Y01577D01*
X02306Y01573D01*
X02308Y01569D01*
X02304Y01571D01*
X023Y01569D01*
X02242Y01567D02*
X02246Y01575D01*
X02242Y01583D01*
X0225Y01579D01*
X02258Y01583D01*
X02254Y01575D01*
X02258Y01567D01*
X0225Y01571D01*
X02242Y01567D01*
X02246Y01571D02*
X02248Y01575D01*
X02246Y01579D01*
X0225Y01577D01*
X02254Y01579D01*
X02252Y01575D01*
X02254Y01571D01*
X0225Y01573D01*
X02246Y01571D01*
X02189Y01565D02*
X02193Y01573D01*
X02189Y01581D01*
X02197Y01577D01*
X02205Y01581D01*
X02201Y01573D01*
X02205Y01565D01*
X02197Y01569D01*
X02189Y01565D01*
X02193Y01569D02*
X02195Y01573D01*
X02193Y01577D01*
X02197Y01575D01*
X02201Y01577D01*
X02199Y01573D01*
X02201Y01569D01*
X02197Y01571D01*
X02193Y01569D01*
X02297Y0151D02*
X02301Y01518D01*
X02297Y01526D01*
X02305Y01522D01*
X02313Y01526D01*
X02309Y01518D01*
X02313Y0151D01*
X02305Y01514D01*
X02297Y0151D01*
X02301Y01514D02*
X02303Y01518D01*
X02301Y01522D01*
X02305Y0152D01*
X02309Y01522D01*
X02307Y01518D01*
X02309Y01514D01*
X02305Y01516D01*
X02301Y01514D01*
X0224Y01512D02*
X02244Y0152D01*
X0224Y01528D01*
X02248Y01524D01*
X02256Y01528D01*
X02252Y0152D01*
X02256Y01512D01*
X02248Y01516D01*
X0224Y01512D01*
X02244Y01516D02*
X02246Y0152D01*
X02244Y01524D01*
X02248Y01522D01*
X02252Y01524D01*
X0225Y0152D01*
X02252Y01516D01*
X02248Y01518D01*
X02244Y01516D01*
X02779Y01571D02*
X02783Y01579D01*
X02779Y01587D01*
X02787Y01583D01*
X02795Y01587D01*
X02791Y01579D01*
X02795Y01571D01*
X02787Y01575D01*
X02779Y01571D01*
X02783Y01575D02*
X02785Y01579D01*
X02783Y01583D01*
X02787Y01581D01*
X02791Y01583D01*
X02789Y01579D01*
X02791Y01575D01*
X02787Y01577D01*
X02783Y01575D01*
X02728Y0157D02*
X02732Y01578D01*
X02728Y01586D01*
X02736Y01582D01*
X02744Y01586D01*
X0274Y01578D01*
X02744Y0157D01*
X02736Y01574D01*
X02728Y0157D01*
X02732Y01574D02*
X02734Y01578D01*
X02732Y01582D01*
X02736Y0158D01*
X0274Y01582D01*
X02738Y01578D01*
X0274Y01574D01*
X02736Y01576D01*
X02732Y01574D01*
X02677Y01573D02*
X02681Y01581D01*
X02677Y01589D01*
X02685Y01585D01*
X02693Y01589D01*
X02689Y01581D01*
X02693Y01573D01*
X02685Y01577D01*
X02677Y01573D01*
X02681Y01577D02*
X02683Y01581D01*
X02681Y01585D01*
X02685Y01583D01*
X02689Y01585D01*
X02687Y01581D01*
X02689Y01577D01*
X02685Y01579D01*
X02681Y01577D01*
X02779Y01508D02*
X02783Y01516D01*
X02779Y01524D01*
X02787Y0152D01*
X02795Y01524D01*
X02791Y01516D01*
X02795Y01508D01*
X02787Y01512D01*
X02779Y01508D01*
X02783Y01512D02*
X02785Y01516D01*
X02783Y0152D01*
X02787Y01518D01*
X02791Y0152D01*
X02789Y01516D01*
X02791Y01512D01*
X02787Y01514D01*
X02783Y01512D01*
X02727Y01508D02*
X02731Y01516D01*
X02727Y01524D01*
X02735Y0152D01*
X02743Y01524D01*
X02739Y01516D01*
X02743Y01508D01*
X02735Y01512D01*
X02727Y01508D01*
X02731Y01512D02*
X02733Y01516D01*
X02731Y0152D01*
X02735Y01518D01*
X02739Y0152D01*
X02737Y01516D01*
X02739Y01512D01*
X02735Y01514D01*
X02731Y01512D01*
X01072Y01177D02*
X01076Y01185D01*
X01072Y01193D01*
X0108Y01189D01*
X01088Y01193D01*
X01084Y01185D01*
X01088Y01177D01*
X0108Y01181D01*
X01072Y01177D01*
X01076Y01181D02*
X01078Y01185D01*
X01076Y01189D01*
X0108Y01187D01*
X01084Y01189D01*
X01082Y01185D01*
X01084Y01181D01*
X0108Y01183D01*
X01076Y01181D01*
X034628Y034189D02*
Y034149D01*
X034708D01*
Y034189D01*
X034748D01*
Y034269D01*
X034708D01*
Y034309D01*
X034628D01*
Y034269D01*
X034588D01*
Y034189D01*
X034628D01*
X034648Y034209D02*
Y034189D01*
X034688D01*
Y034209D01*
X034708D01*
Y034249D01*
X034688D01*
Y034269D01*
X034648D01*
Y034249D01*
X034628D01*
Y034209D01*
X034648D01*
X03463Y031195D02*
Y031155D01*
X03471D01*
Y031195D01*
X03475D01*
Y031275D01*
X03471D01*
Y031315D01*
X03463D01*
Y031275D01*
X03459D01*
Y031195D01*
X03463D01*
X03465Y031215D02*
Y031195D01*
X03469D01*
Y031215D01*
X03471D01*
Y031255D01*
X03469D01*
Y031275D01*
X03465D01*
Y031255D01*
X03463D01*
Y031215D01*
X03465D01*
D106*
X014364Y044113D02*
G03*
X014364Y044113I-00008J0D01*
G01*
X029364D02*
G03*
X029364Y044113I-00008J0D01*
G01*
X028364D02*
G03*
X028364Y044113I-00008J0D01*
G01*
X027364D02*
G03*
X027364Y044113I-00008J0D01*
G01*
X026364D02*
G03*
X026364Y044113I-00008J0D01*
G01*
X025364D02*
G03*
X025364Y044113I-00008J0D01*
G01*
X024364D02*
G03*
X024364Y044113I-00008J0D01*
G01*
X023364D02*
G03*
X023364Y044113I-00008J0D01*
G01*
X022364D02*
G03*
X022364Y044113I-00008J0D01*
G01*
X021364D02*
G03*
X021364Y044113I-00008J0D01*
G01*
X020364D02*
G03*
X020364Y044113I-00008J0D01*
G01*
X019364D02*
G03*
X019364Y044113I-00008J0D01*
G01*
X018364D02*
G03*
X018364Y044113I-00008J0D01*
G01*
X017364D02*
G03*
X017364Y044113I-00008J0D01*
G01*
X016364D02*
G03*
X016364Y044113I-00008J0D01*
G01*
X015364D02*
G03*
X015364Y044113I-00008J0D01*
G01*
X045101Y013563D02*
G03*
X045101Y013563I-00008J0D01*
G01*
X045101Y018737D02*
G03*
X045101Y018737I-00008J0D01*
G01*
D107*
X045061Y013563D02*
G03*
X045061Y013563I-00004J0D01*
G01*
X045061Y018737D02*
G03*
X045061Y018737I-00004J0D01*
G01*
M02*
