M48
;Layer_Color=9474304
;FILE_FORMAT=2:4
INCH,LZ
;TYPE=PLATED
T1F00S00C0.0157
T2F00S00C0.0280
T3F00S00C0.0310
T4F00S00C0.0315
T6F00S00C0.0340
T7F00S00C0.0350
T8F00S00C0.0433
T9F00S00C0.0472
T11F00S00C0.0500
T12F00S00C0.0512
T13F00S00C0.0531
T14F00S00C0.0591
%
T01
X0108Y01185
X01184Y01356
X011721Y013958
X011377Y014387
X01357Y01439
X0139Y01392
X01391Y0135
X014Y01276
X01485Y0138
X01517Y014133
X01591Y01356
X01657Y01459
X01751Y01415
X01815Y01398
X01808Y01354
X01813Y01299
X018861Y012689
X02049Y01355
X0205Y01398
X02002Y01411
X02236Y01409
X022629Y013774
X02296Y01336
X02267Y01302
X02391Y01351
X02389Y014
X024591Y0143
X02527Y01545
X02681Y015217
X02735Y01516
X02787
X028721Y014722
X02925Y01507
X029466Y01559
X03061
X02787Y01369
X02741Y0139
X02699Y01411
X02733Y01324
X02305Y01518
X02248Y0152
X02198Y015231
X03296Y01819
X03289Y02139
X03287Y0246
X03437Y0253
X04008Y02463
X03871Y02319
X04041Y02212
X04214Y02152
X04284Y02183
X04326Y0227
X04382Y0223
X04427Y0236
X04347Y02079
X037782Y020278
X03973Y0182
X04374Y02678
X04285Y03041
X02802Y02963
X02705Y03035
X02366Y0311
X0228Y02986
X023424Y028401
X02342Y027
X02267Y0276
X02265Y0262
X02388Y02541
X02439Y02548
X02435Y02497
X02482Y025
X02479Y02451
X02527Y02453
X027246Y023946
X027259Y02619
X02491Y0189
X02524Y01729
X02569Y01762
X02685Y01581
X02736Y01578
X02787Y01579
X02925Y01605
X02907Y01726
X0235Y01658
X02383Y01573
X02304
X0225Y01575
X02197Y01573
X01651Y01741
X01632Y019247
X01483Y01889
X014843Y01814
X015563Y018038
X01469Y01738
X024947Y038287
X024309Y039109
X02501Y04653
X02222Y0465
X01951Y04655
X02791Y04653
X03216Y04655
X03505
X03822Y04653
X04108Y04654
X0414Y04279
T02
X03912Y03577
X04012
T03
X01794Y04577
X01982
X02074
X02262
X02354
X02542
X02639
X02827
X03172
X0336
X03477
X03665
X0378
X03968
X04075
X04263
Y04848
X04075
X03968
X0378
X03665
X03477
X0336
X03172
X02827
X02639
X02542
X02354
X02262
X02074
X01982
X01794
T04
X04767Y02776
X045741
T06
X01975Y0185
X02075
X02175
X02275
Y0215
X02175
X02075
X01975
X0139Y021
X0129
X0119
X0109
Y018
X0119
X0129
X0139
T07
X0141Y04655
X0161Y04755
X0141Y04855
T08
X04102Y03182
Y03282
Y03382
T09
X04145Y0203
Y0213
Y0223
Y0233
X03005Y02619
Y02719
Y02819
Y02919
T11
X03467Y031235
X034668Y034229
T12
X014284Y044113
X015284
X016284
X017284
X018284
X019284
X020284
X021284
X022284
X023284
X024284
X025284
X026284
X027284
X028284
X029284
T13
X04862Y02124
Y02439
T14
X01305Y0112
X01455
X0209
X0224
X028159
X029659
X031959
X033459
X0355
X037
X03905
X04055
X042609
X044109
X0462
X0477
M30
