G04*
G04 #@! TF.GenerationSoftware,Altium Limited,Altium Designer,21.9.2 (33)*
G04*
G04 Layer_Color=32896*
%FSTAX24Y24*%
%MOIN*%
G70*
G04*
G04 #@! TF.SameCoordinates,8777FA3C-9CA2-4F10-8BE3-E232CA162E6C*
G04*
G04*
G04 #@! TF.FilePolarity,Positive*
G04*
G01*
G75*
%ADD104C,0.0010*%
D104*
X020334Y027643D02*
X020329Y027652D01*
X020315Y027666D01*
X020415D01*
X020329Y028337D02*
X020324D01*
X020314Y028342D01*
X02031Y028347D01*
X020305Y028356D01*
Y028375D01*
X02031Y028385D01*
X020314Y02839D01*
X020324Y028394D01*
X020333D01*
X020343Y02839D01*
X020357Y02838D01*
X020405Y028333D01*
Y028399D01*
X031144Y021082D02*
X031139Y021091D01*
X031125Y021106D01*
X031225D01*
X031139Y021777D02*
X031134D01*
X031124Y021781D01*
X03112Y021786D01*
X031115Y021796D01*
Y021815D01*
X03112Y021824D01*
X031124Y021829D01*
X031134Y021834D01*
X031143D01*
X031153Y021829D01*
X031167Y02182D01*
X031215Y021772D01*
Y021839D01*
X032462Y049241D02*
Y049246D01*
X032457Y049256D01*
X032452Y04926D01*
X032443Y049265D01*
X032424D01*
X032414Y04926D01*
X03241Y049256D01*
X032405Y049246D01*
Y049237D01*
X03241Y049227D01*
X032419Y049213D01*
X032467Y049165D01*
X0324D01*
X033157Y049236D02*
X033147Y049241D01*
X033133Y049255D01*
Y049155D01*
X035443Y049141D02*
Y049146D01*
X035438Y049156D01*
X035433Y04916D01*
X035424Y049165D01*
X035405D01*
X035395Y04916D01*
X03539Y049156D01*
X035386Y049146D01*
Y049137D01*
X03539Y049127D01*
X0354Y049113D01*
X035447Y049065D01*
X035381D01*
X036137Y049136D02*
X036128Y049141D01*
X036114Y049155D01*
Y049055D01*
X038593Y049141D02*
Y049146D01*
X038588Y049156D01*
X038583Y04916D01*
X038574Y049165D01*
X038555D01*
X038545Y04916D01*
X03854Y049156D01*
X038536Y049146D01*
Y049137D01*
X03854Y049127D01*
X03855Y049113D01*
X038597Y049065D01*
X038531D01*
X039287Y049136D02*
X039278Y049141D01*
X039264Y049155D01*
Y049055D01*
X041443Y049141D02*
Y049146D01*
X041438Y049156D01*
X041433Y04916D01*
X041424Y049165D01*
X041405D01*
X041395Y04916D01*
X04139Y049156D01*
X041386Y049146D01*
Y049137D01*
X04139Y049127D01*
X0414Y049113D01*
X041447Y049065D01*
X041381D01*
X042137Y049136D02*
X042128Y049141D01*
X042114Y049155D01*
Y049055D01*
X024538Y045759D02*
Y045754D01*
X024543Y045744D01*
X024548Y04574D01*
X024557Y045735D01*
X024576D01*
X024586Y04574D01*
X02459Y045744D01*
X024595Y045754D01*
Y045763D01*
X02459Y045773D01*
X024581Y045787D01*
X024533Y045835D01*
X0246D01*
X023843Y045764D02*
X023853Y045759D01*
X023867Y045745D01*
Y045845D01*
X021807Y045759D02*
Y045754D01*
X021812Y045744D01*
X021817Y04574D01*
X021826Y045735D01*
X021845D01*
X021855Y04574D01*
X02186Y045744D01*
X021864Y045754D01*
Y045763D01*
X02186Y045773D01*
X02185Y045787D01*
X021803Y045835D01*
X021869D01*
X021113Y045764D02*
X021122Y045759D01*
X021136Y045745D01*
Y045845D01*
X027438Y045709D02*
Y045704D01*
X027443Y045694D01*
X027448Y04569D01*
X027457Y045685D01*
X027476D01*
X027486Y04569D01*
X02749Y045694D01*
X027495Y045704D01*
Y045713D01*
X02749Y045723D01*
X027481Y045737D01*
X027433Y045785D01*
X0275D01*
X026743Y045714D02*
X026753Y045709D01*
X026767Y045695D01*
Y045795D01*
X019038Y045859D02*
Y045854D01*
X019043Y045844D01*
X019048Y04584D01*
X019057Y045835D01*
X019076D01*
X019086Y04584D01*
X01909Y045844D01*
X019095Y045854D01*
Y045863D01*
X01909Y045873D01*
X019081Y045887D01*
X019033Y045935D01*
X0191D01*
X018343Y045864D02*
X018353Y045859D01*
X018367Y045845D01*
Y045945D01*
X025787Y022054D02*
X025778Y022049D01*
X025764Y022035D01*
Y022135D01*
X025093Y022049D02*
Y022044D01*
X025088Y022034D01*
X025083Y02203D01*
X025074Y022025D01*
X025055D01*
X025045Y02203D01*
X02504Y022034D01*
X025036Y022044D01*
Y022053D01*
X02504Y022063D01*
X02505Y022077D01*
X025097Y022125D01*
X025031D01*
X037877Y018564D02*
X037867Y018559D01*
X037853Y018545D01*
Y018645D01*
X037182Y018559D02*
Y018554D01*
X037177Y018544D01*
X037172Y01854D01*
X037163Y018535D01*
X037144D01*
X037134Y01854D01*
X03713Y018544D01*
X037125Y018554D01*
Y018563D01*
X03713Y018573D01*
X037139Y018587D01*
X037187Y018635D01*
X03712D01*
X034596Y024877D02*
X034601Y024867D01*
X034615Y024853D01*
X034515D01*
X034601Y024182D02*
X034606D01*
X034616Y024177D01*
X03462Y024172D01*
X034625Y024163D01*
Y024144D01*
X03462Y024134D01*
X034616Y02413D01*
X034606Y024125D01*
X034597D01*
X034587Y02413D01*
X034573Y024139D01*
X034525Y024187D01*
Y02412D01*
X035058Y027041D02*
Y027046D01*
X035063Y027056D01*
X035068Y02706D01*
X035077Y027065D01*
X035096D01*
X035106Y02706D01*
X03511Y027056D01*
X035115Y027046D01*
Y027037D01*
X03511Y027027D01*
X035101Y027013D01*
X035053Y026965D01*
X03512D01*
X034363Y027036D02*
X034373Y027041D01*
X034387Y027055D01*
Y026955D01*
X030354Y021663D02*
X030349Y021672D01*
X030335Y021686D01*
X030435D01*
X030349Y022357D02*
X030344D01*
X030334Y022362D01*
X03033Y022367D01*
X030325Y022376D01*
Y022395D01*
X03033Y022405D01*
X030334Y02241D01*
X030344Y022414D01*
X030353D01*
X030363Y02241D01*
X030377Y0224D01*
X030425Y022353D01*
Y022419D01*
X033826Y024137D02*
X033831Y024128D01*
X033845Y024114D01*
X033745D01*
X033831Y023443D02*
X033836D01*
X033846Y023438D01*
X03385Y023433D01*
X033855Y023424D01*
Y023405D01*
X03385Y023395D01*
X033846Y02339D01*
X033836Y023386D01*
X033827D01*
X033817Y02339D01*
X033803Y0234D01*
X033755Y023447D01*
Y023381D01*
X020482Y024449D02*
Y024444D01*
X020477Y024434D01*
X020472Y02443D01*
X020463Y024425D01*
X020444D01*
X020434Y02443D01*
X02043Y024434D01*
X020425Y024444D01*
Y024453D01*
X02043Y024463D01*
X020439Y024477D01*
X020487Y024525D01*
X02042D01*
X021177Y024454D02*
X021167Y024449D01*
X021153Y024435D01*
Y024535D01*
X021139Y028128D02*
X021134D01*
X021124Y028133D01*
X02112Y028138D01*
X021115Y028147D01*
Y028166D01*
X02112Y028176D01*
X021124Y02818D01*
X021134Y028185D01*
X021143D01*
X021153Y02818D01*
X021167Y028171D01*
X021215Y028123D01*
Y02819D01*
X021144Y027433D02*
X021139Y027443D01*
X021125Y027457D01*
X021225D01*
X024347Y032881D02*
Y032886D01*
X024352Y032896D01*
X024357Y0329D01*
X024366Y032905D01*
X024385D01*
X024395Y0329D01*
X0244Y032896D01*
X024404Y032886D01*
Y032877D01*
X0244Y032867D01*
X02439Y032853D01*
X024343Y032805D01*
X024409D01*
X023653Y032876D02*
X023662Y032881D01*
X023676Y032895D01*
Y032795D01*
X021299Y030378D02*
X021294D01*
X021284Y030383D01*
X02128Y030388D01*
X021275Y030397D01*
Y030416D01*
X02128Y030426D01*
X021284Y03043D01*
X021294Y030435D01*
X021303D01*
X021313Y03043D01*
X021327Y030421D01*
X021375Y030373D01*
Y03044D01*
X021304Y029683D02*
X021299Y029693D01*
X021285Y029707D01*
X021385D01*
X026752Y024449D02*
Y024444D01*
X026747Y024434D01*
X026742Y02443D01*
X026733Y024425D01*
X026714D01*
X026704Y02443D01*
X0267Y024434D01*
X026695Y024444D01*
Y024453D01*
X0267Y024463D01*
X026709Y024477D01*
X026757Y024525D01*
X02669D01*
X027447Y024454D02*
X027437Y024449D01*
X027423Y024435D01*
Y024535D01*
X023811Y029362D02*
X023816D01*
X023826Y029357D01*
X02383Y029352D01*
X023835Y029343D01*
Y029324D01*
X02383Y029314D01*
X023826Y02931D01*
X023816Y029305D01*
X023807D01*
X023797Y02931D01*
X023783Y029319D01*
X023735Y029367D01*
Y0293D01*
X023806Y030057D02*
X023811Y030047D01*
X023825Y030033D01*
X023725D01*
M02*
