G04*
G04 #@! TF.GenerationSoftware,Altium Limited,Altium Designer,21.9.2 (33)*
G04*
G04 Layer_Color=16711935*
%FSTAX24Y24*%
%MOIN*%
G70*
G04*
G04 #@! TF.SameCoordinates,8777FA3C-9CA2-4F10-8BE3-E232CA162E6C*
G04*
G04*
G04 #@! TF.FilePolarity,Positive*
G04*
G01*
G75*
%ADD102C,0.0020*%
D102*
X04175Y0203D02*
G03*
X04175Y0203I-0003J0D01*
G01*
Y0213D02*
G03*
X04175Y0213I-0003J0D01*
G01*
Y0223D02*
G03*
X04175Y0223I-0003J0D01*
G01*
Y0233D02*
G03*
X04175Y0233I-0003J0D01*
G01*
X03035Y02619D02*
G03*
X03035Y02619I-0003J0D01*
G01*
Y02719D02*
G03*
X03035Y02719I-0003J0D01*
G01*
Y02819D02*
G03*
X03035Y02819I-0003J0D01*
G01*
Y02919D02*
G03*
X03035Y02919I-0003J0D01*
G01*
X027231Y021868D02*
Y023324D01*
X024829D02*
X027231D01*
X024829Y021868D02*
Y023324D01*
Y021868D02*
X027231D01*
X02792Y022301D02*
Y022891D01*
X027231Y022301D02*
X02792D01*
X027231Y022891D02*
X02792D01*
X02414Y022301D02*
X024829D01*
X02414Y022891D02*
X024829D01*
X02414Y022301D02*
Y022891D01*
X021913Y028322D02*
X022227D01*
X021913Y028007D02*
X022227D01*
Y02785D02*
Y02848D01*
X021913D02*
X022227D01*
X021913Y02785D02*
Y02848D01*
Y02785D02*
X022227D01*
X040462Y020587D02*
X040775D01*
Y019997D02*
Y020587D01*
X040462Y019997D02*
X040775D01*
X040462Y020997D02*
X040775D01*
Y021587D01*
X040462D02*
X040775D01*
X040466Y022997D02*
X040775D01*
Y023587D01*
X04047D02*
X040775D01*
X040462Y022587D02*
X040775D01*
Y021997D02*
Y022587D01*
X040466Y021997D02*
X040775D01*
X040462Y019332D02*
X042862D01*
X040462Y024332D02*
X042862D01*
X040462Y019332D02*
Y024332D01*
X042862Y019332D02*
Y024332D01*
X032723Y021761D02*
X033037D01*
X032723Y021446D02*
X033037D01*
Y021289D02*
Y021919D01*
X032723D02*
X033037D01*
X032723Y021289D02*
Y021919D01*
Y021289D02*
X033037D01*
X03295Y047343D02*
Y047657D01*
X03232D02*
X03295D01*
X03232Y047343D02*
Y047657D01*
Y047343D02*
X03295D01*
X032792D02*
Y047657D01*
X032477Y047343D02*
Y047657D01*
X03593Y047243D02*
Y047557D01*
X0353D02*
X03593D01*
X0353Y047243D02*
Y047557D01*
Y047243D02*
X03593D01*
X035773D02*
Y047557D01*
X035458Y047243D02*
Y047557D01*
X03908Y047243D02*
Y047557D01*
X03845D02*
X03908D01*
X03845Y047243D02*
Y047557D01*
Y047243D02*
X03908D01*
X038923D02*
Y047557D01*
X038608Y047243D02*
Y047557D01*
X04193Y047243D02*
Y047557D01*
X0413D02*
X04193D01*
X0413Y047243D02*
Y047557D01*
Y047243D02*
X04193D01*
X041773D02*
Y047557D01*
X041458Y047243D02*
Y047557D01*
X02405Y047343D02*
Y047657D01*
Y047343D02*
X02468D01*
Y047657D01*
X02405D02*
X02468D01*
X024208Y047343D02*
Y047657D01*
X024523Y047343D02*
Y047657D01*
X02132Y047343D02*
Y047657D01*
Y047343D02*
X02195D01*
Y047657D01*
X02132D02*
X02195D01*
X021477Y047343D02*
Y047657D01*
X021792Y047343D02*
Y047657D01*
X02695Y047293D02*
Y047607D01*
Y047293D02*
X02758D01*
Y047607D01*
X02695D02*
X02758D01*
X027108Y047293D02*
Y047607D01*
X027423Y047293D02*
Y047607D01*
X01855Y047443D02*
Y047757D01*
Y047443D02*
X01918D01*
Y047757D01*
X01855D02*
X01918D01*
X018708Y047443D02*
Y047757D01*
X019023Y047443D02*
Y047757D01*
X025108Y023633D02*
Y023947D01*
X025423Y023633D02*
Y023947D01*
X02495D02*
X02558D01*
X02495Y023633D02*
Y023947D01*
Y023633D02*
X02558D01*
Y023947D01*
X037197Y020143D02*
Y020457D01*
X037512Y020143D02*
Y020457D01*
X03704D02*
X03767D01*
X03704Y020143D02*
Y020457D01*
Y020143D02*
X03767D01*
Y020457D01*
X032703Y024197D02*
X033017D01*
X032703Y024512D02*
X033017D01*
X032703Y02404D02*
Y02467D01*
Y02404D02*
X033017D01*
Y02467D01*
X032703D02*
X033017D01*
X03457Y025143D02*
Y025457D01*
X0352D01*
Y025143D02*
Y025457D01*
X03457Y025143D02*
X0352D01*
X034728D02*
Y025457D01*
X035043Y025143D02*
Y025457D01*
X031933Y022342D02*
X032247D01*
X031933Y022027D02*
X032247D01*
Y02187D02*
Y0225D01*
X031933D02*
X032247D01*
X031933Y02187D02*
Y0225D01*
Y02187D02*
X032247D01*
X031933Y023458D02*
X032247D01*
X031933Y023773D02*
X032247D01*
X031933Y0233D02*
Y02393D01*
Y0233D02*
X032247D01*
Y02393D01*
X031933D02*
X032247D01*
X024363Y031783D02*
Y032097D01*
X024048Y031783D02*
Y032097D01*
X02389Y031783D02*
X02452D01*
Y032097D01*
X02389D02*
X02452D01*
X02389Y031783D02*
Y032097D01*
X029062Y026477D02*
X029375D01*
Y025887D02*
Y026477D01*
X029062Y025887D02*
X029375D01*
X029062Y026887D02*
X029375D01*
Y027477D01*
X029062D02*
X029375D01*
X029066Y028887D02*
X029375D01*
Y029477D01*
X02907D02*
X029375D01*
X029062Y028477D02*
X029375D01*
Y027887D02*
Y028477D01*
X029066Y027887D02*
X029375D01*
X029062Y025222D02*
X031462D01*
X029062Y030222D02*
X031462D01*
X029062Y025222D02*
Y030222D01*
X031462Y025222D02*
Y030222D01*
X02097Y026033D02*
Y026347D01*
X02034Y026033D02*
X02097D01*
X02034D02*
Y026347D01*
X02097D01*
X020812Y026033D02*
Y026347D01*
X020497Y026033D02*
Y026347D01*
X022723Y02764D02*
X023037D01*
X022723D02*
Y02827D01*
X023037D01*
Y02764D02*
Y02827D01*
X022723Y027798D02*
X023037D01*
X022723Y028113D02*
X023037D01*
X02386Y030983D02*
Y031297D01*
X02449D01*
Y030983D02*
Y031297D01*
X02386Y030983D02*
X02449D01*
X024017D02*
Y031297D01*
X024332Y030983D02*
Y031297D01*
X022883Y02989D02*
X023197D01*
X022883D02*
Y03052D01*
X023197D01*
Y02989D02*
Y03052D01*
X022883Y030048D02*
X023197D01*
X022883Y030363D02*
X023197D01*
X02724Y026033D02*
Y026347D01*
X02661Y026033D02*
X02724D01*
X02661D02*
Y026347D01*
X02724D01*
X027082Y026033D02*
Y026347D01*
X026767Y026033D02*
Y026347D01*
X021913Y02985D02*
X022227D01*
Y02922D02*
Y02985D01*
X021913Y02922D02*
X022227D01*
X021913D02*
Y02985D01*
Y029692D02*
X022227D01*
X021913Y029377D02*
X022227D01*
X022571Y024058D02*
Y025514D01*
X020169D02*
X022571D01*
X020169Y024058D02*
Y025514D01*
Y024058D02*
X022571D01*
X02326Y024491D02*
Y025081D01*
X022571Y024491D02*
X02326D01*
X022571Y025081D02*
X02326D01*
X01948Y024491D02*
X020169D01*
X01948Y025081D02*
X020169D01*
X01948Y024491D02*
Y025081D01*
X041293Y023379D02*
Y023274D01*
Y023326D01*
X041607D01*
X041555Y023379D01*
X041293Y022224D02*
Y022434D01*
X041502Y022224D01*
X041555D01*
X041607Y022276D01*
Y022381D01*
X041555Y022434D01*
Y02141D02*
X041607Y021358D01*
Y021253D01*
X041555Y0212D01*
X041502D01*
X04145Y021253D01*
Y021305D01*
Y021253D01*
X041397Y0212D01*
X041345D01*
X041293Y021253D01*
Y021358D01*
X041345Y02141D01*
X041293Y020269D02*
X041607D01*
X04145Y020426D01*
Y020216D01*
X029893Y029269D02*
Y029164D01*
Y029216D01*
X030207D01*
X030155Y029269D01*
X029893Y028114D02*
Y028324D01*
X030102Y028114D01*
X030155D01*
X030207Y028166D01*
Y028271D01*
X030155Y028324D01*
Y0273D02*
X030207Y027248D01*
Y027143D01*
X030155Y02709D01*
X030102D01*
X03005Y027143D01*
Y027195D01*
Y027143D01*
X029997Y02709D01*
X029945D01*
X029893Y027143D01*
Y027248D01*
X029945Y0273D01*
X029893Y026159D02*
X030207D01*
X03005Y026316D01*
Y026106D01*
M02*
