G04*
G04 #@! TF.GenerationSoftware,Altium Limited,Altium Designer,21.9.2 (33)*
G04*
G04 Layer_Color=128*
%FSTAX24Y24*%
%MOIN*%
G70*
G04*
G04 #@! TF.SameCoordinates,8777FA3C-9CA2-4F10-8BE3-E232CA162E6C*
G04*
G04*
G04 #@! TF.FilePolarity,Positive*
G04*
G01*
G75*
%ADD22R,0.0374X0.0394*%
%ADD38R,0.0472X0.0551*%
G04:AMPARAMS|DCode=41|XSize=35.4mil|YSize=47.2mil|CornerRadius=3.5mil|HoleSize=0mil|Usage=FLASHONLY|Rotation=0.000|XOffset=0mil|YOffset=0mil|HoleType=Round|Shape=RoundedRectangle|*
%AMROUNDEDRECTD41*
21,1,0.0354,0.0402,0,0,0.0*
21,1,0.0283,0.0472,0,0,0.0*
1,1,0.0071,0.0142,-0.0201*
1,1,0.0071,-0.0142,-0.0201*
1,1,0.0071,-0.0142,0.0201*
1,1,0.0071,0.0142,0.0201*
%
%ADD41ROUNDEDRECTD41*%
%ADD43R,0.0551X0.0472*%
%ADD45O,0.0217X0.0800*%
D22*
X0225Y015075D02*
D03*
Y015665D02*
D03*
X02197Y015075D02*
D03*
Y015665D02*
D03*
X02304Y015085D02*
D03*
Y015675D02*
D03*
X027875Y015072D02*
D03*
Y015663D02*
D03*
X02736Y015065D02*
D03*
Y015655D02*
D03*
X02684Y01506D02*
D03*
Y015651D02*
D03*
X01085Y014105D02*
D03*
Y014695D02*
D03*
D38*
X024664Y040734D02*
D03*
X025412D02*
D03*
X024692Y041608D02*
D03*
X02544D02*
D03*
X033022Y046576D02*
D03*
X032274D02*
D03*
X036022D02*
D03*
X035274D02*
D03*
X039122Y046526D02*
D03*
X038374D02*
D03*
X042022Y046576D02*
D03*
X041274D02*
D03*
X021328Y046624D02*
D03*
X022076D02*
D03*
X024028D02*
D03*
X024776D02*
D03*
X026928Y046574D02*
D03*
X027676D02*
D03*
X018528Y046624D02*
D03*
X019276D02*
D03*
D41*
X032969Y0475D02*
D03*
X0323D02*
D03*
X03595Y0474D02*
D03*
X035281D02*
D03*
X0391D02*
D03*
X038431D02*
D03*
X04195D02*
D03*
X041281D02*
D03*
X024031Y0475D02*
D03*
X0247D02*
D03*
X0213D02*
D03*
X021969D02*
D03*
X026931Y04745D02*
D03*
X0276D02*
D03*
X018531Y0476D02*
D03*
X0192D02*
D03*
D43*
X027317Y036687D02*
D03*
Y037435D02*
D03*
X026487Y036677D02*
D03*
Y037425D02*
D03*
X02646Y038192D02*
D03*
Y03894D02*
D03*
X028164Y036674D02*
D03*
Y037422D02*
D03*
X02816Y038162D02*
D03*
Y03891D02*
D03*
X02734Y038202D02*
D03*
Y03895D02*
D03*
D45*
X025444Y035864D02*
D03*
X024944D02*
D03*
X024444D02*
D03*
X023944D02*
D03*
X023444D02*
D03*
X022944D02*
D03*
X022444D02*
D03*
X021944D02*
D03*
X025444Y039584D02*
D03*
X024944D02*
D03*
X024444D02*
D03*
X023944D02*
D03*
X023444D02*
D03*
X022944D02*
D03*
X022444D02*
D03*
X021944D02*
D03*
M02*
